<?xml version="1.0" encoding="UTF-8" standalone="no"?>
<!-- Created with Inkscape (http://www.inkscape.org/) -->

<svg
   version="1.1"
   id="svg1"
   width="1222.2852"
   height="1728"
   viewBox="0 0 1222.2852 1728"
   xml:space="preserve"
   xmlns="http://www.w3.org/2000/svg"
   xmlns:svg="http://www.w3.org/2000/svg"><defs
     id="defs1"><rect
       x="221.3196"
       y="1341.829"
       width="833.42633"
       height="256.73071"
       id="rect27" /><rect
       x="87.263153"
       y="1244.4484"
       width="1102.804"
       height="169.46758"
       id="rect26" /><rect
       x="89.792519"
       y="1143.2737"
       width="1088.8925"
       height="115.08618"
       id="rect25" /><rect
       x="77.801155"
       y="359.495"
       width="316.57022"
       height="76.906891"
       id="rect24" /><rect
       x="126.9858"
       y="146.65965"
       width="961.33612"
       height="425.67068"
       id="rect21" /><rect
       x="87.638084"
       y="1105.313"
       width="1038.243"
       height="22.356653"
       id="rect12" /><rect
       x="96.58075"
       y="1015.8864"
       width="774.43451"
       height="62.598633"
       id="rect11" /><rect
       x="97.475014"
       y="896.05469"
       width="490.05786"
       height="60.810101"
       id="rect10" /><rect
       x="104.62914"
       y="774.43451"
       width="717.20148"
       height="68.858498"
       id="rect9" /><rect
       x="107.31194"
       y="666.22827"
       width="720.77856"
       height="413.15097"
       id="rect7" /><rect
       x="76.906891"
       y="637.61176"
       width="153.81378"
       height="111.78327"
       id="rect6" /><rect
       x="62.598633"
       y="889.79486"
       width="727.93268"
       height="116.2546"
       id="rect5" /><rect
       x="93.897949"
       y="803.05103"
       width="427.45923"
       height="111.78327"
       id="rect3" /><rect
       x="84.06102"
       y="706.47028"
       width="670.69965"
       height="102.84061"
       id="rect1" /><rect
       x="-227.64301"
       y="-290.87717"
       width="2746.8921"
       height="2084.1982"
       id="rect56984" /><rect
       x="76.906891"
       y="637.61176"
       width="153.81378"
       height="111.78327"
       id="rect6-8" /><rect
       x="76.906891"
       y="637.61176"
       width="153.81378"
       height="111.78327"
       id="rect6-9" /><rect
       x="76.906891"
       y="637.61176"
       width="153.81378"
       height="111.78327"
       id="rect6-7" /></defs><g
     id="g1"
     transform="translate(-2970.4292,-211.09964)"><g
       id="g31"><path
         style="fill:#e9e7db;stroke-width:1.35742"
         d="m 3581.2698,1939.0996 h -610.8406 v -864 -863.99996 h 610.8406 610.8405 v 863.99996 864 z"
         id="path53375" /><g
         id="g30"><g
           id="g24"><g
             id="g23"><g
               id="g22"><g
                 id="g21"><g
                   id="g20"><g
                     id="g13"
                     transform="translate(5.1056916)"><text
                       xml:space="preserve"
                       transform="translate(3445.9481,1118.042)"
                       id="text56984"
                       style="font-style:normal;font-variant:normal;font-weight:normal;font-stretch:normal;font-size:37.3333px;line-height:1.25;font-family:'Nova Square';-inkscape-font-specification:'Nova Square';letter-spacing:0px;word-spacing:15px;white-space:pre;shape-inside:url(#rect56984);display:inline"><tspan
                         x="-227.64258"
                         y="-256.51884"
                         id="tspan2"><tspan
                           dx="0 0 -15 14.999996 0 0 0 0 0 -15 14.999992 0 0 0 -15.00001 14.999992"
                           style="fill:#1a1a1a"
                           id="tspan1">IS BETTER THAN RECYCLING</tspan></tspan></text><text
                       xml:space="preserve"
                       transform="translate(3134.9742,236.97697)"
                       id="text1"
                       style="font-style:normal;font-variant:normal;font-weight:normal;font-stretch:normal;font-size:37.3333px;line-height:1.25;font-family:'Nova Square';-inkscape-font-specification:'Nova Square';letter-spacing:0px;word-spacing:0px;white-space:pre;shape-inside:url(#rect1);display:inline"><tspan
                         x="84.060547"
                         y="740.82882"
                         id="tspan3">SAVES YOU MONEY</tspan></text><text
                       xml:space="preserve"
                       transform="translate(3127.9618,256.67952)"
                       id="text3"
                       style="font-style:normal;font-variant:normal;font-weight:normal;font-stretch:normal;font-size:37.3333px;line-height:1.25;font-family:'Nova Square';-inkscape-font-specification:'Nova Square';letter-spacing:0px;word-spacing:0px;white-space:pre;shape-inside:url(#rect3);display:inline"><tspan
                         x="93.898438"
                         y="837.4089"
                         id="tspan4">TEACHES ENGINEERING</tspan></text><text
                       xml:space="preserve"
                       transform="translate(3156.4371,286.218)"
                       id="text5"
                       style="font-style:normal;font-variant:normal;font-weight:normal;font-stretch:normal;font-size:37.3333px;line-height:1.25;font-family:'Nova Square';-inkscape-font-specification:'Nova Square';letter-spacing:0px;word-spacing:0px;white-space:pre;shape-inside:url(#rect5);display:inline"><tspan
                         x="62.597656"
                         y="924.15304"
                         id="tspan5">SAVES THE PLANET</tspan></text><text
                       xml:space="preserve"
                       transform="translate(2990.9973,189.55372)"
                       id="text6"
                       style="font-style:normal;font-variant:normal;font-weight:normal;font-stretch:normal;font-size:37.3333px;line-height:1.25;font-family:'Nova Square';-inkscape-font-specification:'Nova Square';letter-spacing:0px;word-spacing:0px;white-space:pre;shape-inside:url(#rect6);display:inline;fill:#e53d15;fill-opacity:1"><tspan
                         x="76.90625"
                         y="671.96944"
                         id="tspan6">REPAIR</tspan></text><text
                       xml:space="preserve"
                       transform="translate(2990.9973,305.83634)"
                       id="text6-8"
                       style="font-style:normal;font-variant:normal;font-weight:normal;font-stretch:normal;font-size:37.3333px;line-height:1.25;font-family:'Nova Square';-inkscape-font-specification:'Nova Square';letter-spacing:0px;word-spacing:0px;white-space:pre;shape-inside:url(#rect6-8);display:inline;fill:#e53d15;fill-opacity:1"><tspan
                         x="76.90625"
                         y="671.96944"
                         id="tspan7">REPAIR</tspan></text><text
                       xml:space="preserve"
                       transform="translate(2990.9973,422.11897)"
                       id="text6-2"
                       style="font-style:normal;font-variant:normal;font-weight:normal;font-stretch:normal;font-size:37.3333px;line-height:1.25;font-family:'Nova Square';-inkscape-font-specification:'Nova Square';letter-spacing:0px;word-spacing:0px;white-space:pre;shape-inside:url(#rect6-9);display:inline;fill:#e53d15;fill-opacity:1"><tspan
                         x="76.90625"
                         y="671.96944"
                         id="tspan8">REPAIR</tspan></text><text
                       xml:space="preserve"
                       transform="translate(2990.9973,538.40159)"
                       id="text6-1"
                       style="font-style:normal;font-variant:normal;font-weight:normal;font-stretch:normal;font-size:37.3333px;line-height:1.25;font-family:'Nova Square';-inkscape-font-specification:'Nova Square';letter-spacing:0px;word-spacing:0px;white-space:pre;shape-inside:url(#rect6-7);display:inline;fill:#e53d15;fill-opacity:1"><tspan
                         x="76.90625"
                         y="671.96944"
                         id="tspan9">REPAIR</tspan></text></g><g
                     id="g14"
                     transform="translate(6)"><text
                       xml:space="preserve"
                       transform="translate(2961.5848,209.26526)"
                       id="text7"
                       style="font-size:24px;line-height:1.25;font-family:'Nova Square';-inkscape-font-specification:'Nova Square';letter-spacing:0px;word-spacing:0px;white-space:pre;shape-inside:url(#rect7);display:inline"><tspan
                         x="107.3125"
                         y="688.31589"
                         id="tspan10">Making our things last longer is both more efficient and more </tspan><tspan
                         x="107.3125"
                         y="718.31589"
                         id="tspan11">cost-effective than mining them for raw materials</tspan></text><text
                       xml:space="preserve"
                       transform="translate(2965.7332,217.10843)"
                       id="text9"
                       style="font-size:24px;line-height:1.25;font-family:'Nova Square';-inkscape-font-specification:'Nova Square';letter-spacing:0px;word-spacing:0px;white-space:pre;shape-inside:url(#rect9);display:inline"><tspan
                         x="104.62891"
                         y="796.52097"
                         id="tspan12">Fixing things is often free, and usually cheaper than replacing </tspan><tspan
                         x="104.62891"
                         y="826.52097"
                         id="tspan13">them. Doing the repair yourself saves you money.</tspan></text><text
                       xml:space="preserve"
                       transform="translate(2973.1219,211.76996)"
                       id="text10"
                       style="font-size:24px;line-height:1.25;font-family:'Nova Square';-inkscape-font-specification:'Nova Square';letter-spacing:0px;word-spacing:0px;white-space:pre;shape-inside:url(#rect10);display:inline"><tspan
                         x="97.474609"
                         y="918.14207"
                         id="tspan14">The best way to find out how something </tspan><tspan
                         x="97.474609"
                         y="948.14207"
                         id="tspan15">works is to take it apart.</tspan></text><text
                       xml:space="preserve"
                       transform="translate(2974.0164,207.52257)"
                       id="text11"
                       style="font-size:24px;line-height:1.25;font-family:'Nova Square';-inkscape-font-specification:'Nova Square';letter-spacing:0px;word-spacing:0px;white-space:pre;shape-inside:url(#rect11);display:inline"><tspan
                         x="96.580078"
                         y="1037.9741"
                         id="tspan16">Earth has limited resources. Eventually we will run out.
</tspan><tspan
                         x="96.580078"
                         y="1067.9741"
                         id="tspan17">The best way to be efficient is to reuse what we already have.</tspan></text></g></g><g
                   id="g19"><g
                     id="g7"><path
                       id="path56890"
                       style="fill:#e53d15;fill-opacity:1;stroke-width:1.35742"
                       d="m 3060.9536,768.44428 c 0.5599,0.8215 2.4318,2.2366 4.1598,3.147 l 3.1416,1.657 -1.5165,1.8266 -1.5165,1.8294 0.2572,11.668 0.257,11.6681 2.1901,-0.3553 c 1.2048,-0.196 3.0038,-1.2742 3.998,-2.3941 l 1.8082,-2.0361 -0.8086,2.5346 -0.806,2.5318 36.3296,-0.5964 c 19.981,-0.3286 40.2975,-0.1944 45.1502,0.2996 l 8.8233,0.8987 23.0072,-1.1797 c 12.6537,-0.6485 23.9542,-0.7993 25.1124,-0.3368 1.158,0.4625 38.7555,1.0789 83.5505,1.3707 44.7948,0.2917 91.5243,0.5168 103.8429,0.4985 12.3186,-0.019 33.5632,-0.2821 47.2102,-0.586 l 24.8128,-0.5541 -0.5886,0.9544 -0.5886,0.9518 225.5418,-0.2731 c 124.0478,-0.1495 236.8422,-0.2228 250.654,-0.1617 13.812,0.061 29.9991,0.024 35.9717,-0.083 5.9727,-0.1072 21.0932,-0.3397 33.5989,-0.517 12.5058,-0.1773 22.7374,-0.084 22.7369,0.2068 l 53.4272,-0.4163 0.5462,1.6412 0.5488,1.6384 h 4.637 4.6369 l 0.087,-1.6968 c 0.047,-0.9332 0.014,-11.7948 -0.077,-24.1393 l -0.1643,-22.4452 1.3999,-3.6852 -0.017,-47.1777 -1040.2612,0.068 z m 585.2112,-30.6799 h 8.3222 8.3248 l 2.6247,1.4052 2.6247,1.4051 v 14.1575 14.1575 l -2.6247,1.4052 -2.6247,1.4051 -8.574,-0.04 -8.574,-0.042 -2.3755,-1.3839 -2.3755,-1.3839 v -14.1363 -14.139 l 2.6273,-1.4052 z m 28.6836,0 h 4.0113 4.0113 l 0.896,4.7828 c 0.4936,2.6308 0.5816,8.1283 0.1936,12.2169 l -0.7052,7.434 h 5.2971 5.2998 v -12.2168 -12.2169 h 4.0723 4.0722 v 15.5627 15.5626 l -2.6247,1.4052 -2.6247,1.4051 -8.574,-0.04 -8.5741,-0.042 -2.3754,-1.3839 -2.3755,-1.3839 v -15.5415 z m 263.714,1.1215 1.1505,1.8134 c 0.6328,0.9986 1.1583,6.5502 1.1719,12.3362 l 0.019,10.52 h 2.0361 2.0361 v -12.2168 -12.2168 h 4.0722 4.0723 v 15.3399 15.3373 l -1.6278,1.6305 -1.6306,1.6278 -12.9617,-0.039 -12.9645,-0.042 -2.3755,-1.3839 -2.3755,-1.3839 v -15.5414 -15.5441 h 4.0723 4.0722 v 12.2168 12.2168 h 1.9831 1.9858 l 0.3897,-11.8775 0.3924,-11.8774 3.2425,-0.4587 z m -677.7282,0.064 v 14.9211 14.921 l -2.1316,2.1342 -2.1342,2.1317 h -9.1441 -9.1467 l -2.1315,-1.6969 -2.1343,-1.6967 -0.8006,-9.2713 c -0.4406,-5.0994 -0.429,-11.9714 0.024,-15.2711 l 0.8218,-5.9997 h 3.8894 3.8867 v 12.2169 12.2168 h 4.6952 4.7006 l 0.3898,-11.8775 0.3951,-11.8774 4.4116,-0.4242 z m 349.0487,0.011 3.6375,0.4215 3.6375,0.4189 0.4108,7.8874 0.4084,7.8847 4.3425,-0.4189 4.3401,-0.4215 0.4083,-7.8052 0.4056,-7.8052 h 4.0062 4.0032 v 10.9787 10.9761 l -4.0059,1.5138 -4.006,1.5112 -0.4058,4.1386 -0.4056,4.1385 -3.4439,0.403 c -1.8926,0.2199 -3.8748,-0.035 -4.4063,-0.5674 -0.532,-0.532 -0.9677,-2.5634 -0.9677,-4.515 v -3.5473 l -3.9822,-1.5033 -3.9821,-1.5032 -0.9199,-4.9127 c -0.5122,-2.7016 -0.5097,-7.6936 0,-11.0927 z m -323.5837,0.037 10.0057,0.4003 10.003,0.403 v 4.0723 4.0723 l -7.8052,0.4083 -7.8052,0.4056 v 7.3306 7.3306 l 7.8052,0.4083 7.8052,0.4057 v 4.0722 4.0723 l -10.369,0.395 -10.3688,0.3924 -2.1873,-2.1872 -2.1873,-2.1873 v -12.588 -12.588 l 2.5532,-2.3092 z m 83.0971,0.011 2.7307,1.4635 2.7308,1.4608 v 15.5626 15.5627 h -4.0723 -4.0723 v -12.2168 -12.2168 h -5.4297 -5.4297 v 12.2168 12.2168 h -3.4359 -3.436 l -0.6841,-1.7843 c -0.3769,-0.9812 -0.51,-8.464 -0.297,-16.6284 l 0.3871,-14.8442 10.5042,-0.395 z m 613.4812,0.01 2.8155,2.8182 2.8156,2.8156 -0.3871,13.8659 -0.3871,13.8659 -4.4115,0.4268 -4.4118,0.4242 v -12.3016 -12.3043 h -4.6979 -4.698 l -0.3922,11.8774 -0.3925,11.8775 -3.741,0.4295 -3.7408,0.4322 -0.7184,-1.8745 c -0.3955,-1.0312 -0.5448,-8.5568 -0.3315,-16.7212 l 0.3871,-14.8442 11.1457,-0.3924 z m -167.5119,0.011 2.4258,1.771 2.4232,1.7737 0.631,10.1542 c 0.3474,5.5849 0.2628,12.4791 -0.1908,15.3213 l -0.8272,5.1699 -3.6005,-0.4189 -3.6004,-0.4162 -0.3924,-11.8775 -0.3923,-11.8774 h -4.698 -4.6979 l -0.1331,3.0542 c -0.073,1.6798 -0.2253,7.0247 -0.3393,11.8774 l -0.2067,8.8233 -3.741,0.4295 -3.7382,0.4321 -0.721,-1.8744 c -0.3955,-1.0312 -0.5449,-8.5568 -0.3315,-16.7212 l 0.3871,-14.8442 10.8727,-0.3897 z m -323.0908,0.074 3.7064,4.4249 3.7038,4.4222 3.5207,-4.4116 3.5209,-4.4116 h 3.2133 c 1.7683,0 3.5122,0.4824 3.876,1.0711 0.3638,0.5886 -1.4939,4.2875 -4.1305,8.2214 l -4.7961,7.153 4.8915,7.3677 c 2.6902,4.0518 4.8915,7.9857 4.8915,8.7437 v 1.3787 h -4.0245 -4.0246 l -1.3813,-2.3755 c -0.7602,-1.3066 -2.3168,-3.5736 -3.4598,-5.0374 l -2.0785,-2.6591 -4.1518,5.0346 -4.1519,5.0374 h -3.07 c -1.6877,0 -3.4433,-0.3757 -3.9026,-0.8352 -0.4595,-0.4595 1.2694,-3.9632 3.8442,-7.7866 2.5749,-3.8234 4.682,-7.7019 4.682,-8.6191 0,-0.9173 -1.8325,-4.5572 -4.0723,-8.0889 -2.2397,-3.5317 -4.0722,-6.9131 -4.0722,-7.5135 0,-0.6004 1.6799,-1.0962 3.7329,-1.1029 z m -384.8296,0.024 h 4.1147 4.1148 l -0.3819,16.6284 -0.3817,16.6285 -3.7328,0.4295 -3.7331,0.4294 v -17.0579 z m 94.5557,0 h 8.7543 8.7517 l 3.017,2.113 3.0172,2.113 v 12.7418 12.7418 l -3.0172,2.113 -3.017,2.113 h -8.9876 -8.9904 l -2.2455,-2.4816 -2.2482,-2.4841 v -12.2381 -12.238 l 2.4842,-2.2482 z m 116.3646,0 h 8.6536 8.6536 l 2.6247,1.4051 2.6247,1.4052 v 15.6501 15.6476 l -4.4116,-0.4242 -4.4117,-0.4269 -0.4215,-5.0904 -0.4216,-5.0903 h -4.6687 -4.6688 v 5.4297 5.4297 h -3.9159 -3.9158 l -0.7955,-7.1265 c -0.4373,-3.9195 -0.5353,-10.7793 -0.2173,-15.2445 l 0.5806,-8.118 2.3543,-1.7233 z m 63.2793,0 h 4.0723 4.0722 v 5.1593 5.1566 l -1.6278,1.6305 c -0.8959,0.8959 -2.5969,1.6278 -3.7807,1.6278 h -2.1527 l -0.083,-2.3754 c -0.046,-1.3066 -0.2486,-2.9864 -0.4507,-3.733 -0.2066,-0.7465 -0.295,-2.7318 -0.2067,-4.4116 z m 58.3692,0 h 12.0577 12.0605 l 0.7423,2.8474 c 0.4097,1.5652 0.4177,3.7031 0.016,4.751 l -0.7318,1.9036 h -7.9987 -8.0014 l 0.3394,1.6968 0.3394,1.6967 6.1084,0.6787 6.1084,0.6788 0.4214,3.656 0.4242,3.656 -6.5326,0.4163 -6.5298,0.4162 -0.4162,5.769 -0.4189,5.7691 h -3.9928 -3.9954 v -16.9678 z m 285.0589,0 h 10.9496 10.9495 l 2.6247,1.4051 2.6247,1.4052 v 13.4311 13.4284 l -2.1316,2.1342 -2.1342,2.1316 h -11.44 -11.4427 v -16.9678 z m 39.1877,0 h 8.3222 8.3248 l 2.6247,1.4051 2.6247,1.4052 v 14.1575 14.1575 l -2.6247,1.4051 -2.6247,1.4052 -8.5741,-0.039 -8.574,-0.042 -2.3755,-1.3839 -2.3755,-1.384 v -14.1363 -14.1389 l 2.6273,-1.4052 z m 126.2404,0 h 8.3222 8.3248 l 2.6248,1.4051 2.6247,1.4052 v 14.1575 14.1575 l -2.6247,1.4051 -2.6248,1.4052 -8.574,-0.039 -8.5741,-0.042 -2.3755,-1.3839 -2.3755,-1.384 v -14.1363 -14.1389 l 2.6273,-1.4052 z m 119.631,0 h 4.0722 4.0722 v 16.9678 16.9678 h -4.0722 -4.0722 v -16.9678 z m 13.5742,0 h 12.0576 12.0605 l 0.7423,2.8474 c 0.4097,1.5652 0.4177,3.7031 0.016,4.751 l -0.7318,1.9036 h -3.9263 -3.9291 v 12.2168 12.2168 h -4.0723 -4.0722 v -12.2168 -12.2168 h -4.0723 -4.0723 v -4.751 z m -900.6505,0.6787 h 12.2168 12.2168 v 4.0723 4.0723 l -7.6833,0.4029 -7.6858,0.403 -0.7556,1.9725 -0.7582,1.9725 h 6.7446 6.7448 v 4.0723 4.0723 h -6.0289 -6.0316 l -0.4161,5.769 -0.4189,5.7691 -3.741,0.4295 -3.7382,0.4322 -0.721,-1.8771 c -0.3955,-1.0312 -0.5446,-8.5542 -0.3315,-16.7186 z m 43.4403,0 h 4.0722 4.0723 l 0.4056,7.8052 0.4083,7.8052 h 3.9371 3.9369 l 0.4058,-7.8052 0.4083,-7.8052 h 4.0723 4.0722 v 10.1754 10.1807 l -4.3826,2.0361 -4.3824,2.0361 -0.03,4.4117 -0.031,4.4116 h -4.0723 -4.0695 v -4.6423 -4.6449 l -4.075,-0.8935 -4.0723,-0.8935 -0.7555,-3.0038 c -0.414,-1.6514 -0.5652,-6.6416 -0.3368,-11.09 z m 302.7027,0 h 4.0723 4.0722 v 16.2891 16.2891 l -3.7409,0.4295 -3.7408,0.4322 -0.7185,-1.8745 c -0.3954,-1.0312 -0.5445,-8.5568 -0.3314,-16.7212 z m 67.8712,0 h 4.0722 4.0723 v 16.2891 16.2891 l -3.6851,0.4242 -3.6853,0.4269 -0.7848,-3.1418 c -0.4315,-1.7268 -0.6027,-9.2474 -0.3844,-16.7132 z m 302.7054,0 h 12.2168 12.2168 v 4.0723 4.0723 l -3.6798,0.4242 -3.6826,0.4242 -0.3897,11.7926 -0.3924,11.7926 -3.444,0.403 c -1.8944,0.2208 -3.8796,-0.035 -4.4115,-0.5674 -0.5321,-0.532 -0.9678,-6.0157 -0.9678,-12.1876 v -11.2226 l -3.7329,-0.4296 -3.7329,-0.4294 v -4.0723 z m -4.751,0.4984 0.1617,1.787 c 0.088,0.9828 0.071,2.7032 -0.039,3.823 -0.1099,1.1199 -0.4976,3.4106 -0.8642,5.0904 l -0.6653,3.0542 h -2.8342 -2.8342 l 0.7795,-2.0362 0.7821,-2.0361 h -1.3999 -1.4025 l 0.4269,-4.4116 0.4242,-4.4117 3.7329,-0.4295 z m -440.484,0.859 h 12.2168 12.2169 v 4.0723 4.0723 l -3.6798,0.4242 -3.6826,0.4242 -0.3898,11.7926 -0.3924,11.7926 -3.4439,0.403 c -1.8944,0.2209 -3.8797,-0.035 -4.4117,-0.5674 -0.5318,-0.532 -0.9677,-6.0157 -0.9677,-12.1876 v -11.2226 l -3.7329,-0.4295 -3.7329,-0.4295 v -4.0723 z m 156.1037,0 h 12.2169 12.2168 l 0.4269,4.4117 0.4242,4.4116 h -4.1041 -4.1068 l -0.3923,11.8775 -0.3925,11.8774 -3.4439,0.403 c -1.8944,0.2209 -3.8797,-0.035 -4.4117,-0.5674 -0.5318,-0.532 -0.9677,-6.0157 -0.9677,-12.1876 v -11.2226 l -3.7329,-0.4295 -3.7329,-0.4295 v -4.0723 z m -228.7258,6.1084 v 3.847 3.8469 h 4.7509 4.751 v -3.8469 -3.847 h -4.751 z m 327.139,0 v 7.4659 7.4658 h 5.1991 5.1963 l 0.3023,-7.4658 0.3022,-7.4659 h -5.4987 z m -442.52,1.3575 v 7.4658 7.4658 h 4.7509 4.751 v -7.4658 -7.4658 h -4.751 z m 526.6803,0 v 7.4658 7.4658 h 5.0903 5.0903 v -7.4632 -7.4631 h -5.0903 z m 33.9356,0 v 7.4658 7.4658 h 5.4297 5.4296 v -7.4658 -7.4658 h -5.4296 z m 126.2403,0 v 7.4658 7.4658 h 5.4297 5.4297 v -7.4658 -7.4658 h -5.4297 z m 160.176,14.9263 h 4.0723 4.0723 v 4.751 4.751 h -4.0723 -4.0723 v -4.751 z m -473.025,0.6792 h 4.0538 4.0537 l 0.4428,3.8522 0.44,3.8549 -2.349,2.5929 c -1.2916,1.4272 -3.197,2.5955 -4.2339,2.5955 h -1.8851 l 0.2757,-1.6968 c 0.1506,-0.9332 -0.1801,-2.7298 -0.7343,-3.9927 -0.5539,-1.2629 -0.7956,-3.4008 -0.5356,-4.751 z m -497.5328,4.751 c 0.7466,0 1.3574,0.6108 1.3574,1.3574 0,0.7466 -0.6108,1.3574 -1.3574,1.3574 -0.7466,0 -1.3574,-0.6108 -1.3574,-1.3574 0,-0.7466 0.6108,-1.3574 1.3574,-1.3574 z m -5.4297,0.08 c 0.3281,0 0.6578,0.125 0.9068,0.3738 0.4976,0.4977 0.088,0.9041 -0.9068,0.9041 -0.9959,0 -1.4017,-0.4064 -0.904,-0.9041 0.2488,-0.2489 0.5759,-0.3738 0.904,-0.3738 z m 1015.3528,1.2779 c 0.7466,0 1.3574,0.6108 1.3574,1.3574 0,0.7466 -0.6108,1.3574 -1.3574,1.3574 -0.7466,0 -1.3574,-0.6108 -1.3574,-1.3574 0,-0.7466 0.6108,-1.3574 1.3574,-1.3574 z m 5.3687,2.7943 c 0.3482,-0.016 0.7033,0.11 0.9678,0.3739 0.4976,0.4977 0.088,0.904 -0.9068,0.904 -0.9957,0 -1.4018,-0.4063 -0.904,-0.904 0.2332,-0.2334 0.5357,-0.3592 0.843,-0.3739 z m -1028.3915,19.1658 c 0.1276,-0.014 0.2767,0.057 0.4322,0.212 0.4978,0.4978 0.4978,1.3105 0,1.8081 -0.4977,0.4978 -0.9067,0.091 -0.9067,-0.9041 0,-0.6844 0.1925,-1.0906 0.4745,-1.116 z m 4.0723,0 c 0.1276,-0.014 0.2767,0.057 0.4322,0.212 0.4978,0.4978 0.4978,1.3105 0,1.8081 -0.4978,0.4978 -0.9067,0.091 -0.9067,-0.9041 0,-0.6844 0.1924,-1.0906 0.4745,-1.116 z m 1019.5947,9.2606 c 0.014,-6e-4 0.023,0 0.034,0 0.3733,0 0.6787,0.3054 0.6787,0.6787 0,0.3733 -0.3054,0.6787 -0.6787,0.6787 -0.3733,0 -0.6787,-0.3054 -0.6787,-0.6787 0,-0.3616 0.2869,-0.6604 0.6442,-0.6787 z" /><path
                       id="path56984"
                       style="fill:#1b1b1c;stroke-width:1.35742"
                       d="m 4192.0816,211.09964 -1221.6524,0.0801 0.6036,558.90814 42.7578,-0.1543 42.7597,-0.1543 v -1.2227 c 0,-0.6723 0.9512,-1.2207 2.1153,-1.2207 h 2.1152 l -0.8379,1.3575 -0.8398,1.3574 h 1.4121 1.414 l 0.3633,-32.0995 0.3653,-32.0996 57.0117,0.2226 c 31.3565,0.1222 110.766,0.568 176.4649,0.9883 65.6992,0.4204 148.1644,0.9809 183.2539,1.2481 35.0894,0.267 105.9471,0.8116 157.4609,1.2089 51.5143,0.3974 159.3267,1.0545 239.584,1.4571 80.2576,0.4027 155.3908,0.9906 166.9629,1.3066 11.572,0.3161 29.1351,1.0103 39.0274,1.5449 l 17.9842,0.9727 v 17.4004 17.4023 l 2.0371,-0.7812 2.0352,-0.7832 v 2.748 c 0,1.5107 0.7641,3.1035 1.6973,3.539 l 1.6972,0.7929 -1.6972,0.7891 c -0.9332,0.4355 -1.6973,1.3606 -1.6973,2.0527 v 1.2559 l 22.7383,-0.2559 22.7363,-0.2597 1.1211,-1.4531 1.1211,-1.4512 0.6875,1.6972 c 0.3787,0.9333 1.5046,1.6973 2.5,1.6973 0.9956,0 2.1662,-0.764 2.6016,-1.6973 l 0.791,-1.6972 0.8047,1.7344 0.8046,1.7363 12.4297,-0.8535 c 6.8365,-0.4698 14.111,-1.5544 16.1641,-2.4082 l 3.7344,-1.5508 z m -60.4395,523.64454 c 0.022,-10e-4 0.045,0 0.066,0 0.7025,0 1.2774,0.6109 1.2774,1.3575 0,0.7465 -0.9513,1.3574 -2.1153,1.3574 h -2.1172 l 0.8399,-1.3574 c 0.4472,-0.7234 1.3536,-1.3209 2.0488,-1.3575 z m 4.5586,1.3575 c 0.033,-10e-4 0.067,0 0.1,0 1.0759,0 2.3069,0.5667 2.7363,1.2617 0.4296,0.695 0.3123,1.5293 -0.2597,1.8535 -0.5721,0.3242 -1.8032,0.3157 -2.7364,-0.02 -0.9332,-0.3348 -1.6971,-1.1691 -1.6971,-1.8535 0,-0.663 0.8277,-1.2087 1.8574,-1.2422 z m -14.0742,6.625 1.3574,0.8398 c 0.7465,0.4614 1.3574,1.1083 1.3574,1.4375 0,0.3293 -0.6109,0.5996 -1.3574,0.5996 -0.7466,0 -1.3574,-0.6469 -1.3574,-1.4375 z m -13.5781,0.4023 c 0.4184,-0.014 0.7932,0.094 1.0234,0.3242 0.4605,0.4605 0.1801,1.4918 -0.6192,2.291 l -1.4511,1.4532 -0.8555,-1.3828 -0.8535,-1.3809 1.4687,-0.9082 c 0.4041,-0.2498 0.869,-0.3836 1.2872,-0.3965 z m 8.1484,2.2754 2.2461,0.4375 2.248,0.4395 0.3477,2.3711 c 0.1907,1.3035 -0.057,2.5954 -0.5508,2.8709 -0.4934,0.2755 -1.6603,0.2253 -2.5937,-0.1093 -0.9332,-0.3348 -1.6973,-1.8228 -1.6973,-3.3085 z m -4.0723,0.037 1.3574,0.8399 c 0.7467,0.4615 1.3575,1.1083 1.3575,1.4375 0,0.3293 -0.6108,0.5996 -1.3575,0.5996 -0.7466,0 -1.3574,-0.6468 -1.3574,-1.4375 z m 22.6973,0.8809 c 0.2251,0.01 0.3529,0.1 0.3476,0.2851 -0.016,0.5662 -1.2235,2.5594 -2.6835,4.4257 l -2.6563,3.3926 -0.027,-2.7266 -0.031,-2.7284 2.7149,-1.6953 c 0.9333,-0.5829 1.7534,-0.9197 2.2344,-0.9512 h 0.1015 z m -26.418,1.8398 1.9728,0.7559 c 1.0845,0.4163 2.263,0.7578 2.6191,0.7578 0.3563,0 0.2295,0.6737 -0.2813,1.4999 l -0.9278,1.5039 -1.1699,-1.8437 -1.166,-1.8398 -0.019,1.6973 c -0.014,0.9331 -0.6126,1.6971 -1.336,1.6971 h -1.3144 l 0.8105,-2.1151 z m -1080.9315,0.1563 c 0.023,-0.001 0.047,0 0.072,0 0.7466,0 1.3575,0.6108 1.3575,1.3574 0,0.7466 -0.6109,1.3573 -1.3575,1.3573 -0.7466,0 -1.3574,-0.6107 -1.3574,-1.3573 0,-0.7232 0.5706,-1.3208 1.2852,-1.3574 z m 1134.8065,1.3574 h 0.072 c 0.7465,0 1.3573,0.6108 1.3573,1.3573 0,0.7466 -0.6108,1.3574 -1.3573,1.3574 -0.7467,0 -1.3574,-0.6108 -1.3574,-1.3574 0,-0.7231 0.5706,-1.3207 1.2851,-1.3573 z m -1133.4491,2.7147 h 0.072 c 0.7466,0 1.3574,0.6109 1.3574,1.3575 0,0.7465 -0.6108,1.3574 -1.3574,1.3574 -0.7466,0 -1.3575,-0.6109 -1.3575,-1.3574 0,-0.7233 0.5706,-1.3208 1.2852,-1.3575 z m 1084.6522,0 h 2.4883 c 1.3687,0 2.8915,0.4014 3.3829,0.8926 0.4911,0.4913 0.2146,1.7129 -0.6172,2.7149 -0.8314,1.0019 -2.3563,1.8222 -3.3848,1.8222 h -1.8692 v -2.7148 z m -1078.578,2.7149 h 0.1055 c 1.1199,0 2.0371,0.6108 2.0371,1.3574 0,0.7466 -0.9172,1.3574 -2.0371,1.3574 -1.1199,0 -2.0352,-0.6108 -2.0352,-1.3574 0,-0.7232 0.8579,-1.3208 1.9297,-1.3574 z m 1074.4355,0 h 0.072 c 0.7467,0 1.3575,0.6108 1.3575,1.3574 0,0.7466 -0.6108,1.3574 -1.3575,1.3574 -0.7465,0 -1.3573,-0.6108 -1.3573,-1.3574 0,-0.7232 0.5707,-1.3208 1.2852,-1.3574 z m -1080.5097,1.3574 h 0.072 c 0.7466,0 1.3574,0.6108 1.3574,1.3574 0,0.7466 -0.6108,1.3574 -1.3574,1.3574 -0.7466,0 -1.3575,-0.6108 -1.3575,-1.3574 0,-0.7232 0.5706,-1.3208 1.2852,-1.3574 z m 3.5137,5.4297 c 0.013,-10e-4 0.018,0 0.029,0 0.3292,0 0.5996,0.6108 0.5996,1.3574 0,0.7466 -0.6468,1.3574 -1.4375,1.3574 h -1.4395 l 0.8399,-1.3574 c 0.4471,-0.7232 1.0704,-1.3208 1.4082,-1.3574 z m 0.6327,4.1484 c 0.3266,10e-4 0.6545,0.1274 0.9024,0.375 0.4978,0.4976 0.091,0.9063 -0.9044,0.9063 -0.9958,0 -1.4058,-0.4087 -0.9081,-0.9063 0.2334,-0.2333 0.5405,-0.3564 0.8476,-0.3711 h 0.062 z m 1011.957,28.4239 -7.0019,5.0957 c -3.8513,2.8028 -11.7926,8.5172 -17.6485,12.6972 -5.8558,4.1799 -11.3367,8.4558 -12.1777,9.502 -0.841,1.046 -3.8408,14.4237 -6.666,29.7285 -2.8252,15.3049 -5.7997,28.8076 -6.6114,30.0078 -0.8119,1.2002 -6.2473,5.9732 -12.0781,10.6035 l -10.5996,8.416 3.6953,6.3692 c 2.0334,3.5016 4.3607,6.8149 5.1719,7.3633 0.8113,0.5485 2.7791,1.0066 4.373,1.0175 l 2.8965,0.021 2.4239,3.7324 c 1.3332,2.0531 4.7818,6.9398 7.664,10.8594 2.8825,3.9195 5.587,7.127 6.0059,7.127 0.4189,0 4.9483,-3.2538 10.0664,-7.2305 l 9.3047,-7.2305 25.5215,-5.1699 c 14.0372,-2.8435 25.8279,-5.5451 26.2011,-6.0039 0.3733,-0.4589 2.8167,-0.8803 5.4297,-0.9336 2.6131,-0.053 6.4885,-0.5364 8.6094,-1.0742 l 3.8555,-0.9785 -0.7539,-1.959 c -0.4138,-1.0783 -10.6004,-15.8059 -22.6387,-32.7246 -12.0386,-16.9186 -22.1797,-31.5218 -22.5371,-32.4531 -0.3574,-0.9315 0.018,-4.1753 0.834,-7.209 l 1.4843,-5.5157 18.2891,-13.0585 18.2871,-13.0586 v -1.8829 c 0,-1.0345 -1.0684,-2.4386 -2.375,-3.123 -1.3065,-0.6844 -10.6223,-1.625 -20.7012,-2.0898 z m 67.8438,46.3671 -16.2754,11.4883 -16.2754,11.4883 -3.2266,-0.8047 -3.2265,-0.8008 0.7207,1.877 c 0.3961,1.0323 6.402,9.9208 13.3457,19.7519 6.9436,9.831 12.9581,17.8699 13.3652,17.8672 0.4071,0 3.1096,-4.6225 6.0078,-10.2676 l 5.2715,-10.2636 1.8262,-13.8262 c 1.0052,-7.6034 1.843,-16.0416 1.8593,-18.75 l 0.025,-4.9219 -1.7089,-1.4199 z m -168.293,43.2344 -14.9316,9.1758 -14.9317,9.1758 -0.4316,3.0293 -0.4336,3.0312 9.2558,14.8965 9.2559,14.8984 2.0352,0.5645 c 1.1199,0.3117 2.3416,0.6106 2.7148,0.6621 0.3733,0.052 7.7034,-3.7006 16.2891,-8.3379 l 15.6113,-8.4336 0.3144,-3.3808 0.3165,-3.3828 -9.2188,-15.6094 -9.2187,-15.6114 -3.3125,-0.3398 z m 115.9004,0 h 1.3574 c 0.7467,0 1.7341,0.6109 2.1953,1.3574 l 0.8379,1.3575 h -1.3574 c -0.7466,0 -1.7338,-0.6109 -2.1953,-1.3575 z m 2.2617,5.8926 c 0.1086,0 0.1976,0.03 0.2617,0.094 0.3417,0.3416 0.2186,1.2722 -0.2734,2.0684 -0.4922,0.7963 -1.544,1.4473 -2.3379,1.4473 h -1.4414 l 1.7148,-2.0684 c 0.7672,-0.9246 1.6054,-1.5306 2.0762,-1.541 z m -9.0488,2.2519 h 1.4375 c 0.7907,0 1.4355,0.6109 1.4355,1.3575 0,0.7466 -0.2684,1.3574 -0.5976,1.3574 -0.3293,0 -0.976,-0.6108 -1.4375,-1.3574 z m -19.7598,1.4493 c 0.5118,0.022 0.9141,0.5657 0.9141,1.2656 v 1.3574 l -3.7324,-0.096 -3.7325,-0.096 2.7149,-1.166 c 1.4931,-0.6417 3.1724,-1.2091 3.7324,-1.2617 h 0.1035 z m 12.5488,0.4375 c 0.2353,0.01 0.4668,0.078 0.6758,0.207 0.695,0.4295 1.2637,1.0497 1.2637,1.3789 0,0.3293 -0.9512,0.5996 -2.1152,0.5996 h -2.1153 l 0.8516,-1.3789 c 0.3077,-0.4979 0.8232,-0.7855 1.3379,-0.8027 h 0.1015 z m 23.6582,2.1855 c 0.7466,0 1.3575,0.6108 1.3575,1.3574 0,0.7465 -0.6109,1.3575 -1.3575,1.3575 -0.7465,0 -1.3574,-0.611 -1.3574,-1.3575 0,-0.7466 0.6109,-1.3574 1.3574,-1.3574 z m -24.1972,1.0488 1.5664,1.5704 1.5683,1.5664 -2.0234,1.2773 c -1.1137,0.7041 -2.483,1.2918 -3.043,1.3027 -0.5599,0.014 -1.0195,-0.8596 -1.0195,-1.9355 0,-1.0758 0.665,-2.3676 1.4766,-2.8692 z m -22.9903,0.9414 c 0.5742,0 1.1948,0.5385 1.5293,1.4102 l 0.7793,2.0293 h -1.9941 c -1.0964,0 -1.9941,-0.5767 -1.9941,-1.2793 0,-0.7025 0.5464,-1.6143 1.2148,-2.0273 0.1461,-0.091 0.3039,-0.1316 0.4648,-0.1329 z m 49.9024,2.0821 c 0.7466,0 1.3574,0.6108 1.3574,1.3574 0,0.7466 -0.6108,1.3574 -1.3574,1.3574 -0.7466,0 -1.3574,-0.6108 -1.3574,-1.3574 0,-0.7466 0.6108,-1.3574 1.3574,-1.3574 z m -31.8984,0.068 0.4472,2.7832 0.4453,2.7852 1.9317,-0.7402 1.9258,-0.7403 v 1.461 1.0097 l -1.3379,0.8282 -1.3418,0.8261 -3.0547,-2.8437 -3.0508,-2.8457 2.0176,-1.2617 z m -17.127,2.6465 h 1.4375 c 0.7907,0 1.4355,0.6108 1.4355,1.3574 0,0.7466 -0.2684,1.3575 -0.5976,1.3575 -0.3293,0 -0.976,-0.6109 -1.4375,-1.3575 z m 25.9551,0.078 c 0.3266,0 0.6505,0.1277 0.8984,0.375 0.4978,0.4977 0.091,0.9043 -0.9043,0.9043 -0.9958,0 -1.4001,-0.4066 -0.9023,-0.9043 0.2332,-0.2333 0.5347,-0.3585 0.8418,-0.373 0.022,-0.001 0.045,0 0.066,0 z m -14.4629,0.1622 c 0.1276,-0.014 0.2741,0.058 0.4297,0.2128 0.4977,0.4977 0.4977,1.3108 0,1.8086 -0.4978,0.4977 -0.9043,0.091 -0.9043,-0.9043 0,-0.6844 0.1924,-1.0917 0.4746,-1.1171 z m 14.457,2.5585 v 1.17 c 0,0.6433 -0.9153,1.5214 -2.0351,1.9511 l -2.0371,0.7832 v -1.3945 -0.9453 l 2.0371,-0.7812 z m 1.8574,0.1563 c 0.1218,0 0.2585,0.068 0.4043,0.2129 0.4977,0.4976 0.4977,1.3108 0,1.8086 -0.4978,0.4978 -0.9043,0.091 -0.9043,-0.9043 0,-0.6844 0.1924,-1.0898 0.4746,-1.1152 0.01,-9e-4 0.017,0 0.025,0 z m -148.8105,3.7812 -8.5801,5.0196 -8.5762,5.0156 0.8184,1.3262 0.8203,1.3242 -1.4922,-0.9219 -1.4902,-0.9199 -6.8652,4.2207 -6.8614,4.2227 v 2.3242 c 0,1.278 7.37,12.5244 16.375,24.9941 9.005,12.4698 17.0136,22.6738 17.7989,22.6738 h 1.4277 l -0.8281,-4.4121 c -0.4553,-2.4263 -1.214,-6.6955 -1.6875,-9.4882 l -0.8633,-5.0762 1.666,-2.0059 c 0.9149,-1.1025 5.729,-4.2616 10.6973,-7.0215 4.9685,-2.7599 9.4851,-5.6833 10.0371,-6.4941 0.5521,-0.8108 0.6743,-2.3657 0.2715,-3.457 -0.4026,-1.0914 -4.7052,-8.2158 -9.5606,-15.8321 -4.8554,-7.6165 -9.7917,-14.2182 -10.9687,-14.6699 z m 142.5898,1.5723 c 0.5471,-0.014 1.0277,0.122 1.2813,0.375 0.4511,0.4509 -0.3503,0.7718 -1.7813,0.7129 l -2.6015,-0.1094 1.7812,-0.7129 c 0.4287,-0.1716 0.8948,-0.2594 1.3203,-0.2656 z m -155.1679,9.3379 c 0.014,-7e-4 0.024,0 0.035,0 0.3733,0 0.6778,0.3044 0.6778,0.6777 0,0.3733 -0.3045,0.6797 -0.6778,0.6797 -0.3733,0 -0.6797,-0.3064 -0.6797,-0.6797 0,-0.3616 0.2872,-0.6595 0.6446,-0.6777 z m -4.795,2.7148 c 0.7026,0 1.654,0.611 2.1153,1.3575 l 0.8379,1.3574 h -2.1153 c -1.164,0 -2.1172,-0.6108 -2.1172,-1.3574 0,-0.7465 0.5768,-1.3575 1.2793,-1.3575 z m 96.2207,2.6934 c -1.5613,0 -17.7663,7.6933 -36.0078,17.0957 l -33.166,17.0938 -0.7578,1.9765 c -0.4171,1.0869 0.013,5.6071 0.9531,10.0449 0.9418,4.4378 2.4462,9.0702 3.3418,10.2949 l 1.627,2.2266 12.7812,1.8066 c 7.0293,0.9932 15.2839,1.8292 18.3438,1.8555 l 5.5625,0.047 7.9922,-8.1445 c 4.394,-4.4795 8.4737,-8.1446 9.0664,-8.1446 h 1.0762 l -0.8671,8.4844 -0.8633,8.4844 2.5234,2.2031 c 1.3887,1.2122 4.8156,2.939 7.6153,3.8379 2.7995,0.8988 5.0898,2.1289 5.0898,2.7344 0,0.6057 -2.2902,1.5279 -5.0898,2.04882 -2.7997,0.521 -9.879,3.4344 -15.7325,6.4746 l -10.6465,5.5273 -3.1933,4.877 c -1.7574,2.6812 -11.78,20.1261 -22.2735,38.7695 -10.4933,18.6437 -19.08,34.3743 -19.08,34.9551 0,0.5808 1.1199,2.1271 2.4883,3.4336 1.3683,1.3065 5.493,4.1343 9.164,6.2871 l 6.6719,3.9141 -2.5352,1.5156 c -1.395,0.8335 -3.6726,2.4329 -5.0605,3.5527 l -2.5235,2.0371 12.8614,96.377 c 7.0737,53.0071 12.8652,97.4454 12.8652,98.752 v 2.375 h -12.2168 -12.2168 l -0.014,-3.0528 c -0.014,-1.6798 -2.4317,-45.6902 -5.3867,-97.7969 -2.9548,-52.1066 -5.7345,-95.3231 -6.1758,-96.0371 -0.4412,-0.7138 -2.5549,-1.2968 -4.6972,-1.2968 h -3.8946 l -2.1308,-2.1329 c -1.1732,-1.1732 -2.1348,-2.4685 -2.1348,-2.8769 0,-0.4085 9.467,-18.9222 21.0391,-41.1426 11.572,-22.2205 21.041,-41.085 21.041,-41.9199 0,-0.8351 -0.2572,-1.5176 -0.5723,-1.5176 -0.315,0 -9.6307,2.8032 -20.7011,6.2305 l -20.1289,6.2344 -4.75,3.5058 c -2.613,1.93 -9.3323,7.4918 -14.9317,12.3574 -5.5994,4.8655 -11.1334,9.6337 -12.2969,10.5957 -1.1636,0.962 -4.4742,2.0509 -7.3574,2.42 l -5.2402,0.6699 -3.8418,3.6816 -3.8418,3.6797 v 3.5547 c 0,1.9551 1.3012,7.4897 2.8926,12.3008 l 2.8945,8.75 5.2461,6.7871 c 2.8867,3.7329 8.3047,10.3278 12.0391,14.6562 l 6.791,7.8711 v 53.3321 c 0,29.3327 -0.4036,70.8907 -0.8985,92.3515 l -0.9023,39.0196 -191.6504,-0.4121 -191.6543,-0.4102 -2.2383,2.2363 c -1.2308,1.2309 -2.2369,2.4358 -2.2363,2.6758 5e-4,0.2399 111.0205,0.6037 246.7109,0.8086 l 246.7168,0.373 -1.8945,-1.2539 -1.8965,-1.2539 0.836,-2.1738 c 0.4586,-1.1953 1.7308,-2.1719 2.83,-2.1719 1.0991,0 2.3617,0.583 2.8028,1.2969 0.4413,0.7137 1.636,0.9775 2.6562,0.5859 l 1.8555,-0.7109 0.8594,1.3906 0.8593,1.3907 2.2305,-0.8555 1.7539,-0.6738 c -0.1974,-0.1358 -0.3931,-0.2732 -0.582,-0.4161 l -2.6153,-1.9804 0.9571,-0.9571 0.9551,-0.955 2.9804,2.9785 c 1.6387,1.6384 2.384,2.9567 1.6582,2.9336 -0.579,-0.019 -1.8214,-0.6013 -3.0312,-1.3887 l -0.7227,1.877 -0.8691,2.2714 h 14.8886 14.8907 v -1.6289 -1.6289 l 1.6269,1.6289 1.6289,1.6289 h 39.7735 39.7734 v -2.0351 -2.0371 h -19.5137 c -10.732,0 -21.4208,-0.3811 -23.7539,-0.8477 l -4.2422,-0.8476 v 2.205 c 0,1.213 -0.6108,2.2051 -1.3574,2.2051 -0.7466,0 -1.3574,-0.8788 -1.3574,-1.9531 v -1.9531 l -9.2207,0.3593 -9.2188,0.3614 -7.7714,-27.9317 c -4.2728,-15.3624 -16.6099,-59.389 -27.4161,-97.8379 -10.8061,-38.4488 -19.6485,-71.6415 -19.6621,-73.7617 l -0.018,-3.8535 16.7363,-29.4023 c 9.205,-16.171 22.6435,-39.8109 29.8633,-52.5313 l 13.1269,-23.1269 v -3.13092 -3.1309 l -26.5293,-34.4843 -26.5273,-34.4883 z m 8.7032,384.07422 0.1504,-0.3945 -0.4707,0.1797 c 0.1072,0.073 0.2126,0.1446 0.3203,0.2148 z M 3871.73,947.86468 l -3.416,0.033 -3.418,0.033 -8.8242,8.1465 -8.8223,8.1504 0.3965,1.998 0.4004,2 h -1.498 -1.4942 l 0.8379,-1.3574 0.8379,-1.3574 h -1.4063 c -0.7734,0 -2.3853,1.4961 -3.582,3.3223 l -2.1758,3.3183 1.1446,2.0449 c 0.6293,1.1244 11.1025,13.6798 23.2734,27.90042 l 22.1289,25.8555 3.6426,-0.023 3.6465,-0.027 11.5273,-7.1367 11.5254,-7.1348 0.4609,-2.3964 0.461,-2.3946 -22.8242,-30.48632 z m -17.0156,16.2891 c 0.7466,0 1.3574,0.6109 1.3574,1.3574 0,0.7466 -0.6108,1.3574 -1.3574,1.3574 -0.7466,0 -1.3575,-0.6108 -1.3575,-1.3574 0,-0.7465 0.6109,-1.3574 1.3575,-1.3574 z m 0.2285,4.0722 -0.5391,1.6114 c -0.2956,0.8871 -1.2617,1.8547 -2.1484,2.1504 -0.8866,0.2955 -1.6133,-0.058 -1.6133,-0.7871 0,-0.729 0.9681,-1.6967 2.1504,-2.1504 z m -24.4492,15.6114 -8.8496,7.4648 -8.8536,7.4668 -0.076,3.28322 -0.084,3.2852 9.0859,9.6113 c 4.9976,5.2858 15.169,15.8711 22.6016,23.5234 l 13.5137,13.9141 h 2.1933 c 1.2054,0 6.307,-3.7111 11.336,-8.25 l 9.1445,-8.2539 -0.021,-2.2656 -0.023,-2.2696 -21.2754,-23.7558 -21.2754,-23.75392 h -3.709 z m 84.9765,9.164 c -0.3149,0.014 -0.5086,0.044 -0.5625,0.096 -0.4314,0.4314 2.1556,4.7837 5.7461,9.67392 l 6.5274,8.8925 h 2.4336 c 1.3382,0 7.6332,-2.5797 13.9902,-5.7324 6.3568,-3.1528 11.5586,-6.13382 11.5586,-6.62302 0,-0.4892 -8.8803,-2.2618 -19.7344,-3.9414 -9.4976,-1.4697 -17.7541,-2.4359 -19.959,-2.3653 z m -98.7363,28.84182 v 0 c -0.7298,0 -16.0365,11.2424 -34.0137,24.9824 l -32.6855,24.9824 -2.6367,5.166 -2.6348,5.1641 v 6.0781 c 0,3.3408 0.6512,7.7929 1.4453,9.8946 0.7941,2.1017 3.0843,5.5746 5.0899,7.7187 2.0055,2.144 5.4789,4.7172 7.7187,5.7168 l 4.0723,1.8164 6.7871,0.047 6.7871,0.047 4.75,-2.8868 c 2.6131,-1.5889 18.9525,-14.1998 36.3105,-28.0234 17.3581,-13.8237 31.5606,-25.5023 31.5606,-25.9531 0,-0.4508 -7.0265,-8.4542 -15.6133,-17.7852 -8.5868,-9.3311 -16.2078,-16.9668 -16.9375,-16.9668 z m -48.6289,50.6524 4.5156,0.8457 4.5137,0.8476 4.1758,4.7578 4.1758,4.7559 v 5.1992 5.1992 l -2.9434,3.7403 c -1.6183,2.0576 -4.9581,4.5838 -7.4219,5.6133 -2.4637,1.0293 -5.2636,1.8588 -6.2207,1.8418 -0.9573,-0.018 -3.6029,-0.9519 -5.8808,-2.0762 -2.2782,-1.1243 -5.1792,-3.7984 -6.4473,-5.9453 l -2.3067,-3.9063 v -4.2676 c 0,-2.3482 0.8895,-5.9898 1.9766,-8.0918 l 1.9766,-3.8242 4.9414,-2.3437 z m 105.6269,23.3066 h 0.066 c 0.7024,0 1.2792,0.9173 1.2792,2.0371 0,1.1199 -0.5106,2.0352 -1.1328,2.0352 -0.6222,0 -1.5203,-0.3918 -1.998,-0.8692 -0.4774,-0.4774 -0.5435,-1.3927 -0.1465,-2.0351 0.3846,-0.6224 1.2397,-1.1365 1.9316,-1.168 z m 2.9122,5.4297 c 0.6308,0 1.1464,0.6469 1.1464,1.4375 0,0.7907 -0.5446,1.0987 -1.2129,0.6856 -0.6683,-0.413 -1.5662,0.1635 -1.9941,1.2792 -0.4283,1.1155 -1.503,2.0274 -2.3887,2.0274 h -1.6132 l 2.459,-2.7149 c 1.3512,-1.4931 2.9726,-2.7148 3.6035,-2.7148 z m 3.1484,0 c 0.014,-6e-4 0.024,0 0.035,0 0.3733,0 0.6778,0.3064 0.6778,0.6797 0,0.3733 -0.3045,0.6777 -0.6778,0.6777 -0.3733,0 -0.6796,-0.3044 -0.6796,-0.6777 0,-0.3616 0.2871,-0.6614 0.6445,-0.6797 z m 0,2.7148 c 0.014,-5e-4 0.024,0 0.035,0 0.3733,0 0.6778,0.3065 0.6778,0.6797 0,0.3733 -0.3045,0.6778 -0.6778,0.6778 -0.3733,0 -0.6796,-0.3045 -0.6796,-0.6778 0,-0.3616 0.2871,-0.6613 0.6445,-0.6797 z m -5.4297,6.7872 c 0.014,-6e-4 0.024,0 0.035,0 0.3733,0 0.6777,0.3063 0.6777,0.6796 0,0.3733 -0.3044,0.6778 -0.6777,0.6778 -0.3733,0 -0.6797,-0.3045 -0.6797,-0.6778 0,-0.3617 0.2871,-0.6613 0.6445,-0.6796 z m 0,9.5019 c 0.014,-5e-4 0.024,0 0.035,0 0.3733,0 0.6777,0.3064 0.6777,0.6797 0,0.3733 -0.3044,0.6777 -0.6777,0.6777 -0.3733,0 -0.6797,-0.3044 -0.6797,-0.6777 0,-0.3616 0.2871,-0.6614 0.6445,-0.6797 z m 118.0273,131.6699 h 0.1036 c 1.1199,0 2.0351,0.611 2.0351,1.3575 0,0.7466 -0.9152,1.3574 -2.0351,1.3574 -1.1198,0 -2.0371,-0.6108 -2.0371,-1.3574 0,-0.7232 0.8615,-1.321 1.9335,-1.3575 z m 17.002,1.3575 h 0.068 c 0.7465,0 1.3574,0.6108 1.3574,1.3574 0,0.7466 -0.6109,1.3574 -1.3574,1.3574 -0.7466,0 -1.3575,-0.6108 -1.3575,-1.3574 0,-0.7233 0.5744,-1.3208 1.2891,-1.3574 z m -5.5195,6.7871 h 2.1152 c 1.1641,0 2.1153,0.6108 2.1153,1.3574 0,0.7466 -0.5748,1.3574 -1.2774,1.3574 -0.7025,0 -1.6538,-0.6108 -2.1152,-1.3574 z m 12.375,1.1972 1.3789,0.8535 c 0.7588,0.4689 1.0292,1.4203 0.5996,2.1153 -0.4295,0.695 -1.0497,1.2637 -1.3789,1.2637 -0.3293,0 -0.5996,-0.9515 -0.5996,-2.1153 z m -19.0039,1.7735 v 2.4414 c 0,1.3433 -0.8556,2.7718 -1.9024,3.1738 -1.047,0.4011 -2.2686,0.3637 -2.7148,-0.084 -0.4462,-0.4463 -0.8125,-1.5545 -0.8125,-2.4629 0,-0.9083 1.2217,-1.9707 2.7148,-2.3613 z m 2.0742,0.4238 h 2.6953 2.6973 v 2.0352 2.0371 l -3.1758,0.4472 -3.1738,0.4512 0.4765,-2.4863 z m -4.1778,7.4648 c 0.5178,0 1.8567,0.9172 2.9766,2.0371 l 2.0352,2.0352 h -1.2871 c -0.7085,0 -2.0492,-0.9153 -2.9786,-2.0352 -0.9295,-1.1199 -1.2644,-2.0371 -0.7461,-2.0371 z m 8.7325,0 h 1.4375 c 0.7905,0 1.4355,0.6109 1.4355,1.3575 0,0.7466 -0.2684,1.3574 -0.5976,1.3574 -0.3292,0 -0.9761,-0.6108 -1.4375,-1.3574 z m -3.9746,0.08 c 0.3482,-0.016 0.7003,0.1071 0.9648,0.3711 0.4976,0.4977 0.091,0.9082 -0.9043,0.9082 -0.9959,0 -1.4001,-0.4105 -0.9023,-0.9082 0.2333,-0.2334 0.5345,-0.3564 0.8418,-0.3711 z m 1.9023,2.875 v 0 c 0.014,-6e-4 0.019,-3e-4 0.027,0 0.1195,0 0.2507,0.071 0.3907,0.211 0.4976,0.4978 0.4976,1.3129 0,1.8105 -0.4979,0.4978 -0.9044,0.093 -0.9044,-0.9023 0,-0.6935 0.1967,-1.1034 0.4844,-1.1192 z m 4.0723,1.3574 v 0 c 0.013,-5e-4 0.019,-3e-4 0.027,0 0.1194,0 0.2506,0.071 0.3906,0.211 0.4977,0.4978 0.4977,1.3129 0,1.8105 -0.4978,0.4978 -0.9043,0.093 -0.9043,-0.9023 0,-0.6934 0.1966,-1.1033 0.4844,-1.1192 z m -10.0547,1.1192 h 0.068 c 0.7466,0 1.3575,0.6108 1.3575,1.3574 0,0.7466 -0.6109,1.3574 -1.3575,1.3574 -0.7466,0 -1.3574,-0.6108 -1.3574,-1.3574 0,-0.7232 0.5744,-1.3209 1.2891,-1.3574 z m 18.1992,2.9531 v 0 c 0.014,-6e-4 0.019,-3e-4 0.027,0 0.1195,0 0.2507,0.071 0.3906,0.2109 0.4977,0.4978 0.4977,1.313 0,1.8106 -0.4977,0.4978 -0.9043,0.093 -0.9043,-0.9024 0,-0.6934 0.1967,-1.1032 0.4844,-1.1191 z m -0.6289,13.3359 h 0.066 c 0.7025,0 1.6539,0.6109 2.1152,1.3575 l 0.8379,1.3574 h -2.1172 c -1.164,0 -2.1152,-0.6108 -2.1152,-1.3574 0,-0.7232 0.5405,-1.321 1.2129,-1.3575 z m 6.7734,0 h 1.4375 c 0.7905,0 1.4356,0.6109 1.4356,1.3575 0,0.7466 -0.2686,1.3574 -0.5977,1.3574 -0.3292,0 -0.9761,-0.6108 -1.4375,-1.3574 z m -4.6718,4.0723 c 1.0757,0 2.3337,0.6108 2.7949,1.3574 l 0.8379,1.3575 h -1.4961 c -0.8234,0 -1.3983,0.762 -1.2774,1.6953 0.1208,0.9332 0.1488,2.835 0.061,4.2285 l -0.1621,2.5351 -2.7149,-0.7109 -2.7148,-0.707 v 1.2304 c 0,0.6766 -0.9153,1.2305 -2.0352,1.2305 -1.1199,0 -2.0371,-0.6108 -2.0371,-1.3574 0,-0.7466 0.7641,-1.2062 1.6973,-1.0195 l 1.6972,0.3398 0.064,-2.7148 0.062,-2.7149 1.6348,0.3399 c 0.8984,0.1866 1.7048,-0.4243 1.7929,-1.3575 0.088,-0.9333 0.088,-2.1549 0,-2.7148 -0.088,-0.5599 0.7193,-1.0176 1.795,-1.0176 z m -31.8809,2.793 c 0.3482,-0.016 0.7004,0.1072 0.9648,0.3711 0.4976,0.4977 0.091,0.9082 -0.9043,0.9082 -0.9959,0 -1.4019,-0.4105 -0.9043,-0.9082 0.2333,-0.2334 0.5365,-0.3564 0.8438,-0.3711 z m 9.4941,1.2793 h 0.068 c 0.7466,0 1.3574,0.6108 1.3574,1.3574 0,0.7466 -0.6108,1.3574 -1.3574,1.3574 -0.7466,0 -1.3574,-0.6108 -1.3574,-1.3574 0,-0.7232 0.5743,-1.3209 1.289,-1.3574 z m 34.0039,1.3574 c 0.7466,0 1.3575,0.9153 1.3575,2.0352 0,1.1197 -0.6109,2.0371 -1.3575,2.0371 -0.7466,0 -1.3574,-0.9174 -1.3574,-2.0371 0,-1.1199 0.6108,-2.0352 1.3574,-2.0352 z m -53.7207,1.3574 h 0.1036 c 1.1199,0 2.0351,0.6108 2.0351,1.3574 0,0.7466 -0.9152,1.3575 -2.0351,1.3575 -1.1199,0 -2.0372,-0.6109 -2.0372,-1.3575 0,-0.7233 0.8616,-1.3209 1.9336,-1.3574 z m 11.0098,1.3574 h 0.029 c 0.3292,0 0.5996,0.6109 0.5996,1.3575 0,0.7466 -0.6469,1.3574 -1.4375,1.3574 h -1.4355 l 0.8359,-1.3574 c 0.447,-0.7232 1.0704,-1.321 1.4082,-1.3575 z m -536.9082,2.5411 v 1.2148 c 0,0.6673 1.3749,1.9109 3.0547,2.7637 1.6798,0.8526 5.498,1.7693 8.4844,2.0371 2.9863,0.268 5.8873,0.5899 6.4472,0.7148 0.56,0.1249 1.0176,-0.5045 1.0176,-1.4004 v -1.6289 l 1.627,1.6289 c 0.8958,0.8959 3.0346,1.627 4.7519,1.627 h 3.1231 v -2.084 -2.084 l 2.625,1.4063 c 1.4441,0.773 2.9702,1.4043 3.3925,1.4043 0.4225,0 0.7696,-0.9513 0.7696,-2.1153 v -2.1152 l 1.3574,0.8379 1.3574,0.8398 v -1.4375 c 0,-0.7906 -0.8642,-1.4394 -1.9219,-1.4394 -1.0576,0 -2.1992,0.764 -2.5371,1.6972 l -0.6152,1.6973 -2.5527,-1.3984 -2.5528,-1.3985 -13.914,-0.3828 z m -389.5801,0.1699 v 2.7148 2.7149 h 6.7871 6.7871 v -2.0352 c 0,-1.1199 0.6109,-2.0371 1.3575,-2.0371 0.7466,0 1.3574,0.9172 1.3574,2.0371 v 2.0352 h 2.0351 c 1.1199,0 2.0372,-0.3915 2.0372,-0.8692 0,-0.4775 -1.0685,-1.6781 -2.375,-2.6699 l -2.377,-1.8027 -7.8047,-0.045 z m 25.7481,0 c -2.2163,0 -4.0293,0.3296 -4.0293,0.7344 0,0.4047 0.7639,1.5967 1.6972,2.6445 l 1.6954,1.9023 173.0722,-0.023 c 95.189,-0.015 172.3082,-0.3388 171.375,-0.7188 -0.9333,-0.3799 -1.6972,-1.5555 -1.6972,-2.6132 v -1.9219 h -168.3204 -168.3203 v 2.0351 c 0,1.1199 -0.6775,2.0371 -1.5039,2.0371 h -1.5019 l 0.7812,-2.0371 0.7813,-2.0351 z m 352.9726,0 v 1.4394 1.4375 l -1.6718,-1.0332 c -0.9202,-0.5687 -2.755,-1.1152 -4.0743,-1.2129 -1.3193,-0.098 -2.0978,0.1273 -1.7304,0.4942 0.3673,0.3672 2.3534,1.7707 4.4121,3.1211 l 3.7441,2.457 3.9024,-0.6367 c 2.1463,-0.3493 4.8941,-0.6548 6.1074,-0.6778 l 2.207,-0.043 -2.3555,-1.7871 c -1.2949,-0.9834 -1.9568,-2.1838 -1.4707,-2.67 0.4862,-0.4861 -1.3562,-0.8886 -4.0937,-0.8886 z m 592.3516,0.2383 c 0.1195,0 0.2487,0.073 0.3887,0.2128 0.4976,0.4978 0.4976,1.313 0,1.8106 -0.4978,0.4978 -0.9043,0.091 -0.9043,-0.9043 0,-0.7159 0.2127,-1.1291 0.5156,-1.1191 z m -30.3789,0.4414 c 0.9954,0 2.0658,0.764 2.3769,1.6972 l 0.5645,1.6953 h -2.9414 -2.9395 l 0.5645,-1.6953 c 0.3111,-0.9332 1.3796,-1.6972 2.375,-1.6972 z m -818.5938,0.6757 h 0.068 c 0.7466,0 1.3574,0.6109 1.3574,1.3575 0,0.7466 -0.6108,1.3574 -1.3574,1.3574 -0.7466,0 -1.3574,-0.6108 -1.3574,-1.3574 0,-0.7233 0.5745,-1.321 1.289,-1.3575 z m 259.336,0 c 0.7466,0 1.3574,0.6109 1.3574,1.3575 0,0.7466 -0.6108,1.3574 -1.3574,1.3574 -0.7466,0 -1.3574,-0.6108 -1.3574,-1.3574 0,-0.7466 0.6108,-1.3575 1.3574,-1.3575 z m 575.4785,0 h 0.068 c 0.7465,0 1.3575,0.6109 1.3575,1.3575 0,0.7466 -0.611,1.3574 -1.3575,1.3574 -0.7466,0 -1.3574,-0.6108 -1.3574,-1.3574 0,-0.7233 0.5744,-1.321 1.2891,-1.3575 z m -918.9024,1.4356 c 0.3266,0 0.6526,0.1257 0.9004,0.373 0.4977,0.4978 0.091,0.9063 -0.9043,0.9063 -0.996,0 -1.4019,-0.4085 -0.9043,-0.9063 0.2334,-0.2332 0.5365,-0.3566 0.8438,-0.3711 h 0.064 z m 71.9434,0 c 0.3266,0 0.6524,0.1257 0.9004,0.373 0.4976,0.4978 0.091,0.9063 -0.9043,0.9063 -0.9959,0 -1.402,-0.4085 -0.9043,-0.9063 0.2333,-0.2332 0.5365,-0.3566 0.8438,-0.3711 h 0.064 z m 814.9356,1.5176 c -0.2878,0.014 -0.4864,0.426 -0.4864,1.1191 0,0.9958 0.4065,1.402 0.9043,0.9043 0.4976,-0.4977 0.4976,-1.3128 0,-1.8105 -0.14,-0.14 -0.2699,-0.2091 -0.3887,-0.2129 -0.014,-4e-4 -0.021,-4e-4 -0.029,0 z m -551.5997,1.1953 c -0.328,0 -0.6554,0.126 -0.9043,0.375 -0.4977,0.4978 -0.091,0.9023 0.9043,0.9023 0.9959,0 1.4021,-0.4045 0.9043,-0.9023 -0.2487,-0.2488 -0.5761,-0.375 -0.9043,-0.375 z" /></g><text
                     xml:space="preserve"
                     transform="translate(3086.8928,210.20537)"
                     id="text12"
                     style="font-size:10.6667px;line-height:1.25;font-family:'Nova Square';-inkscape-font-specification:'Nova Square';letter-spacing:0px;word-spacing:0px;white-space:pre;shape-inside:url(#rect12);display:inline"><tspan
                       x="87.638672"
                       y="1115.1291"
                       id="tspan18">Adapted from &quot;Repair Manifesto&quot; by ifixit.com. Licensed under CC BY NC SA 3.0. This work, &quot;Repair Event Flyer&quot; is licensed under CC BY NC SA 3.0 by ttsgeb</tspan></text></g></g><text
                 xml:space="preserve"
                 transform="translate(2972.3713,164.5978)"
                 id="text21"
                 style="font-size:126.667px;line-height:1.25;font-family:'Nova Square';-inkscape-font-specification:'Nova Square';text-align:center;letter-spacing:10.31px;word-spacing:0px;white-space:pre;shape-inside:url(#rect21);display:inline;fill:#e9e7db;fill-opacity:1"
                 x="269.48438"
                 y="0"><tspan
                   x="189.7101"
                   y="263.23274"
                   id="tspan19">Chattanooga
</tspan><tspan
                   x="209.62552"
                   y="421.56648"
                   id="tspan20">Repair Cafe</tspan></text></g><text
               xml:space="preserve"
               style="font-size:37.3333px;line-height:1.25;font-family:'Nova Square';-inkscape-font-specification:'Nova Square';letter-spacing:0px;word-spacing:0px;fill:#e9e7db;fill-opacity:1"
               x="3091.155"
               y="313.04599"
               id="text22"><tspan
                 id="tspan22"
                 x="3091.155"
                 y="313.04599"
                 style="font-size:37.3333px;fill:#e9e7db;fill-opacity:1">Chattlab Presents</tspan></text></g><text
             xml:space="preserve"
             style="font-size:53.3333px;line-height:1.25;font-family:'Nova Square';-inkscape-font-specification:'Nova Square';letter-spacing:0px;word-spacing:0px;fill:#e53d15;fill-opacity:1"
             x="3548.1248"
             y="668.96393"
             id="text23"><tspan
               id="tspan23"
               x="3548.1248"
               y="668.96393">Third Saturdays, 11-3</tspan></text><text
             xml:space="preserve"
             transform="rotate(-55,1775.8437,-2457.9846)"
             id="text24"
             style="font-size:29.3333px;line-height:1.25;font-family:'Nova Square';-inkscape-font-specification:'Nova Square';letter-spacing:0px;word-spacing:0px;white-space:pre;shape-inside:url(#rect24);display:inline;fill:#e53d15;fill-opacity:1"><tspan
               x="77.800781"
               y="386.48979"
               id="tspan21">Monthly!</tspan></text></g><g
           id="g29"><text
             xml:space="preserve"
             transform="translate(2946.3795,214.89369)"
             id="text25"
             style="font-size:53.3333px;line-height:0.95;font-family:'Nova Square';-inkscape-font-specification:'Nova Square';text-align:center;letter-spacing:0px;word-spacing:0px;white-space:pre;shape-inside:url(#rect25);display:inline;fill:#e53d15;fill-opacity:1"
             x="351.79666"
             y="0"><tspan
               x="280.22905"
               y="1184.3565"
               id="tspan24">Free and Open to the Public
</tspan><tspan
               x="311.97382"
               y="1235.0231"
               id="tspan25">100 Cherokee Blvd (BDC)</tspan></text><text
             xml:space="preserve"
             transform="translate(2942.761,231.72009)"
             id="text26"
             style="font-size:32px;line-height:1.25;font-family:'Nova Square';-inkscape-font-specification:'Nova Square';text-align:center;letter-spacing:0px;word-spacing:0px;white-space:pre;shape-inside:url(#rect26);display:inline"
             x="516.23132"
             y="0"><tspan
               x="93.344727"
               y="1273.8991"
               id="tspan26">Stuff fixed FREE! If you can get it in the door, we'll teach you to fix it.
</tspan><tspan
               x="288.56348"
               y="1313.8991"
               id="tspan27">Entrance is through the alley door on the BDC</tspan></text><text
             xml:space="preserve"
             transform="translate(2942.3251,229.32794)"
             id="text27"
             style="font-size:37.3333px;line-height:1.25;font-family:'Nova Square';-inkscape-font-specification:'Nova Square';text-align:center;letter-spacing:0px;word-spacing:0px;white-space:pre;shape-inside:url(#rect27);display:inline"
             x="143.34492"
             y="0"><tspan
               x="493.04765"
               y="1376.1862"
               id="tspan30">March 16, 2024
</tspan><tspan
               x="503.81196"
               y="1422.8529"
               id="tspan31">April 20, 2024
</tspan><tspan
               x="510.63878"
               y="1469.5195"
               id="tspan32">May 18, 2024
</tspan><tspan
               x="508.81587"
               y="1516.1861"
               id="tspan33">June 15, 2024
</tspan><tspan
               x="494.11405"
               y="1562.8527"
               id="tspan34">And many more!</tspan></text><text
             xml:space="preserve"
             style="font-size:26.6667px;line-height:1.25;font-family:'Nova Square';-inkscape-font-specification:'Nova Square';text-align:center;letter-spacing:0px;word-spacing:0px;text-anchor:middle"
             x="3580.9443"
             y="1845.0706"
             id="text28"><tspan
               id="tspan28"
               x="3580.9443"
               y="1845.0706">Questions or interested in Volunteering?</tspan><tspan
               x="3580.9443"
               y="1878.4039"
               id="tspan29">Email: repair@everyturn.net</tspan></text></g></g></g></g></svg>
