<svg width="350" height="650" viewBox="0 0 350 650" fill="none" xmlns="http://www.w3.org/2000/svg">
<rect width="350" height="650" fill="white"/>
<line x1="38" y1="82" x2="38" y2="574" stroke="#7B9E89" stroke-width="6" stroke-dasharray="12 12"/>
<line x1="38" y1="75" x2="38" y2="369" stroke="#7B9E89" stroke-width="6"/>
<path d="M160 27C162.209 27 164 28.7909 164 31V50C164 52.2091 162.209 54 160 54H78V27H160Z" fill="#7B9E89"/>
<path d="M106.332 44.39L106.332 46L100.816 46L100.816 36.48L106.192 36.48L106.192 38.09L102.496 38.09L102.496 40.372L105.772 40.372L105.772 41.982L102.496 41.982L102.496 44.39L106.332 44.39ZM115.476 36.48L112.452 46L110.73 46L107.692 36.48L109.54 36.48L110.982 41.268L111.64 43.732L112.34 41.254L113.768 36.48L115.476 36.48ZM122.994 44.39L122.994 46L117.478 46L117.478 36.48L122.854 36.48L122.854 38.09L119.158 38.09L119.158 40.372L122.434 40.372L122.434 41.982L119.158 41.982L119.158 44.39L122.994 44.39ZM125.473 46L125.473 36.48L127.013 36.48C127.751 37.4413 128.451 38.4587 129.113 39.532C129.776 40.596 130.378 41.6927 130.919 42.822L130.794 39.98L130.794 36.48L132.404 36.48L132.404 46L130.864 46C130.266 44.824 129.646 43.6433 129.001 42.458C128.367 41.2633 127.69 40.1387 126.971 39.084L127.083 42.36L127.084 46L125.473 46ZM134.386 38.09L134.386 36.48L141.386 36.48L141.386 38.09L138.726 38.09L138.726 46L137.046 46L137.046 38.09L134.386 38.09Z" fill="white"/>
<path d="M43.9034 39L58.4445 31.7881C58.9127 31.5561 59.1213 31.0043 58.9283 30.5196C58.0935 28.4212 56.9577 26.4754 55.5745 24.7332C55.2484 24.3223 54.6656 24.2209 54.2278 24.5108L40.7017 33.4672L41.7126 17.2997C41.7451 16.7802 41.3721 16.3234 40.8558 16.248C39.76 16.0863 38.6406 16 37.5 16C36.3594 16 35.24 16.0863 34.1442 16.248C33.6279 16.3234 33.2549 16.7802 33.2873 17.2997L34.2982 33.4672L20.7722 24.5108C20.3343 24.2209 19.7516 24.3223 19.4254 24.7332C18.0423 26.4754 16.9065 28.4212 16.0716 30.5196C15.8787 31.0043 16.0872 31.5561 16.5555 31.7882L31.0965 39L16.5555 46.2119C16.0872 46.4439 15.8787 46.9957 16.0716 47.4805C16.9065 49.5788 18.0423 51.5246 19.4254 53.2668C19.7516 53.6777 20.3343 53.7791 20.7722 53.4892L34.2983 44.5328L33.2873 60.7003C33.2549 61.2198 33.6279 61.6766 34.1442 61.752C35.24 61.9138 36.3594 62 37.5 62C38.6406 62 39.76 61.9138 40.8558 61.752C41.3721 61.6766 41.7451 61.2198 41.7127 60.7003L40.7017 44.5328L54.2278 53.4892C54.6657 53.7791 55.2484 53.6777 55.5746 53.2668C56.9577 51.5246 58.0935 49.5788 58.9284 47.4805C59.1213 46.9957 58.9128 46.4439 58.4445 46.2119L43.9034 39Z" fill="#FBB042"/>
<path d="M86.46 114.296L86.496 121.46C86.496 125.204 88.08 126.896 93.3 126.896C95.604 126.896 98.232 126.572 100.104 126.248C100.644 126.14 101.04 126.212 101.04 126.86V129.956C101.04 130.424 100.968 130.604 100.356 130.748C99.132 131.036 95.856 131.36 92.472 131.36C82.248 131.36 80.34 127.652 80.34 121.424V114.368C80.34 107.456 84.444 104.864 91.644 104.864C94.236 104.864 99.096 105.08 100.104 105.404C100.392 105.512 100.464 105.62 100.464 105.908L100.176 112.496C100.176 112.856 99.96 113 99.6 113H96.864C96.54 113 96.396 112.82 96.324 112.496L95.676 109.22C94.92 109.112 93.516 109.004 91.68 109.004C87.576 109.004 86.46 111.704 86.46 114.296ZM131.182 127.292L132.046 127.364C132.37 127.4 132.406 127.508 132.406 127.796V130.604C132.406 130.856 132.298 131 132.01 131H122.722C122.47 131 122.326 130.892 122.326 130.64V127.796C122.326 127.544 122.398 127.436 122.65 127.4L123.55 127.292C124.342 127.184 124.486 127.004 124.486 126.428V119.732H113.866V126.428C113.866 127.004 114.01 127.22 114.802 127.292L115.666 127.364C115.99 127.4 116.026 127.508 116.026 127.796V130.604C116.026 130.856 115.918 131 115.63 131H106.342C106.09 131 105.946 130.892 105.946 130.64V127.796C105.946 127.544 106.018 127.436 106.27 127.4L107.17 127.292C107.962 127.184 108.106 127.004 108.106 126.428V109.652C108.106 109.076 107.962 108.896 107.17 108.788L106.306 108.68C106.054 108.644 105.946 108.5 105.946 108.248V105.44C105.946 105.188 106.018 105.08 106.306 105.08H115.666C115.954 105.08 116.026 105.188 116.026 105.44V108.176C116.026 108.572 115.99 108.644 115.666 108.68L114.802 108.788C114.01 108.896 113.866 109.076 113.866 109.652V116.204H124.486V109.652C124.486 109.076 124.342 108.896 123.55 108.788L122.686 108.68C122.434 108.644 122.326 108.5 122.326 108.248V105.44C122.326 105.188 122.398 105.08 122.686 105.08H132.046C132.334 105.08 132.406 105.188 132.406 105.44V108.176C132.406 108.572 132.37 108.644 132.046 108.68L131.182 108.788C130.39 108.896 130.246 109.076 130.246 109.652V126.428C130.246 127.004 130.39 127.22 131.182 127.292ZM146.957 105.08H151.493C151.997 105.08 152.069 105.296 152.249 105.8L160.385 125.96C160.817 127.076 161.249 127.22 162.077 127.328L162.617 127.4C162.833 127.436 162.941 127.508 162.941 127.76V130.64C162.941 130.784 162.869 131 162.617 131H153.221C152.897 131 152.825 131 152.825 130.388V127.904C152.825 127.652 152.933 127.508 153.113 127.472L154.193 127.328C154.589 127.292 154.769 127.004 154.517 126.392L153.545 123.908H143.789L142.889 126.356C142.709 126.896 142.817 127.328 143.357 127.4L144.257 127.508C144.437 127.544 144.545 127.688 144.545 127.94V130.568C144.545 130.892 144.473 131 144.149 131H135.977C135.797 131 135.653 130.892 135.653 130.64V127.832C135.653 127.58 135.761 127.436 135.941 127.4L136.913 127.292C137.597 127.22 137.849 127.04 138.245 125.996L146.381 105.62C146.489 105.26 146.597 105.08 146.957 105.08ZM148.541 111.128L145.085 120.38H152.141L148.541 111.128ZM162.916 105.08H184.984C185.38 105.08 185.38 105.368 185.38 105.62L185.092 112.496C185.056 113 184.804 113 184.516 113H181.852C181.6 113 181.384 112.82 181.312 112.496L180.7 109.364C180.664 109.076 180.484 108.932 180.232 108.932L176.812 108.824V126.32C176.812 126.896 176.956 127.112 177.748 127.184L179.692 127.4C179.908 127.436 180.052 127.58 180.052 127.796V130.64C180.052 130.856 179.944 131 179.656 131H168.208C167.92 131 167.812 130.892 167.812 130.64V127.832C167.812 127.58 167.92 127.436 168.172 127.4L170.116 127.184C170.908 127.112 171.052 126.86 171.052 126.32V108.824L167.632 108.932C167.38 108.932 167.2 109.076 167.164 109.364L166.552 112.496C166.48 112.82 166.264 113 166.012 113H163.384C163.096 113 162.844 113 162.808 112.496L162.52 105.62C162.52 105.368 162.52 105.08 162.916 105.08ZM188.785 105.08H210.853C211.249 105.08 211.249 105.368 211.249 105.62L210.961 112.496C210.925 113 210.673 113 210.385 113H207.721C207.469 113 207.253 112.82 207.181 112.496L206.569 109.364C206.533 109.076 206.353 108.932 206.101 108.932L202.681 108.824V126.32C202.681 126.896 202.825 127.112 203.617 127.184L205.561 127.4C205.777 127.436 205.921 127.58 205.921 127.796V130.64C205.921 130.856 205.813 131 205.525 131H194.077C193.789 131 193.681 130.892 193.681 130.64V127.832C193.681 127.58 193.789 127.436 194.041 127.4L195.985 127.184C196.777 127.112 196.921 126.86 196.921 126.32V108.824L193.501 108.932C193.249 108.932 193.069 109.076 193.033 109.364L192.421 112.496C192.349 112.82 192.133 113 191.881 113H189.253C188.965 113 188.713 113 188.677 112.496L188.389 105.62C188.389 105.368 188.389 105.08 188.785 105.08ZM234.455 131H215.303C215.051 131 214.943 130.784 214.943 130.64V127.724C214.943 127.472 215.051 127.328 215.267 127.292L216.311 127.184C216.995 127.076 217.139 126.896 217.139 126.32V109.652C217.139 109.076 216.995 108.896 216.203 108.788L215.339 108.68C215.087 108.644 214.979 108.5 214.979 108.248V105.44C214.979 105.188 215.051 105.08 215.339 105.08H224.699C224.987 105.08 225.059 105.188 225.059 105.44V108.176C225.059 108.572 225.023 108.644 224.699 108.68L223.835 108.788C223.043 108.896 222.899 109.076 222.899 109.652V126.86L229.559 126.644C229.991 126.644 230.135 126.5 230.279 126.176L231.323 122.936C231.431 122.612 231.647 122.432 231.863 122.432H235.103C235.391 122.432 235.607 122.504 235.571 122.936L234.851 130.46C234.851 130.712 234.851 130.964 234.455 131ZM248.853 105.08H253.389C253.893 105.08 253.965 105.296 254.145 105.8L262.281 125.96C262.713 127.076 263.145 127.22 263.973 127.328L264.513 127.4C264.729 127.436 264.837 127.508 264.837 127.76V130.64C264.837 130.784 264.765 131 264.513 131H255.117C254.793 131 254.721 131 254.721 130.388V127.904C254.721 127.652 254.829 127.508 255.009 127.472L256.089 127.328C256.485 127.292 256.665 127.004 256.413 126.392L255.441 123.908H245.685L244.785 126.356C244.605 126.896 244.713 127.328 245.253 127.4L246.153 127.508C246.333 127.544 246.441 127.688 246.441 127.94V130.568C246.441 130.892 246.369 131 246.045 131H237.873C237.693 131 237.549 130.892 237.549 130.64V127.832C237.549 127.58 237.657 127.436 237.837 127.4L238.809 127.292C239.493 127.22 239.745 127.04 240.141 125.996L248.277 105.62C248.385 105.26 248.493 105.08 248.853 105.08ZM250.437 111.128L246.981 120.38H254.037L250.437 111.128ZM289.402 111.344V112.064C289.402 114.404 288.25 116.348 286.126 117.104C288.682 117.356 290.878 119.048 290.878 122.612V123.476C290.878 129.02 287.818 131 279.286 131H268.414C268.126 131 268.018 130.784 268.018 130.64V127.724C268.018 127.472 268.126 127.328 268.378 127.292L269.242 127.184C270.034 127.076 270.178 126.896 270.178 126.32V109.76C270.178 109.184 269.998 109.004 269.242 108.896L268.378 108.788C268.126 108.752 268.018 108.608 268.018 108.356V105.44C268.018 105.296 268.126 105.08 268.414 105.08H281.806C287.026 105.08 289.402 106.304 289.402 111.344ZM279.862 119.336H275.938V126.86H279.718C283.318 126.86 285.118 126.248 285.118 123.764V122.432C285.118 120.092 283.174 119.336 279.862 119.336ZM280.726 109.112H275.938V115.304H280.654C283.066 115.304 284.146 114.152 284.146 112.352V111.74C284.146 109.94 283.246 109.112 280.726 109.112ZM101.616 148.028V149.612C101.616 153.572 100.032 155.696 97.224 156.632C98.304 156.884 99.024 157.604 99.78 159.152L100.932 161.492C101.652 163.04 101.832 163.328 102.336 163.328C102.804 163.328 103.272 163.292 103.524 163.292C103.992 163.292 104.028 163.436 104.028 163.796V166.172C104.028 167.108 103.812 167.144 100.608 167.144C97.584 167.144 96.72 166.748 95.496 164.156L93.084 159.08C92.328 157.532 91.5 157.244 90.672 157.208H87.54V162.428C87.54 163.004 87.684 163.22 88.476 163.292L89.34 163.364C89.664 163.4 89.7 163.508 89.7 163.796V166.604C89.7 166.856 89.592 167 89.304 167H80.016C79.764 167 79.62 166.892 79.62 166.64V163.796C79.62 163.544 79.692 163.436 79.944 163.4L80.844 163.292C81.636 163.184 81.78 163.004 81.78 162.428V145.76C81.78 145.184 81.6 145.004 80.844 144.896L79.98 144.788C79.728 144.752 79.62 144.608 79.62 144.356V141.44C79.62 141.296 79.728 141.08 80.016 141.08H92.04C98.016 141.08 101.616 141.728 101.616 148.028ZM96.036 148.028C96.036 145.94 94.992 144.752 91.464 144.752H87.54V153.176H91.464C94.992 153.176 96.036 152.06 96.036 149.612V148.028ZM127.686 167H108.03C107.742 167 107.634 166.856 107.634 166.64V163.724C107.634 163.472 107.742 163.328 107.994 163.292L108.858 163.184C109.65 163.076 109.794 163.004 109.794 162.32V145.76C109.794 145.148 109.65 145.004 108.858 144.896L107.994 144.788C107.742 144.752 107.634 144.608 107.634 144.356V141.44C107.634 141.224 107.742 141.08 108.03 141.08H127.578C127.974 141.08 127.974 141.368 127.974 141.62L127.686 148.496C127.65 148.928 127.47 149 127.11 149H124.41C124.086 149 123.978 148.892 123.87 148.496L123.294 146.084C123.186 145.616 123.114 145.436 122.502 145.436L115.554 145.256V151.952H123.294C123.762 151.952 123.906 152.096 123.906 152.564V155.516C123.906 155.984 123.762 156.128 123.186 156.128H115.554V162.86L123.078 162.644C123.546 162.644 123.654 162.428 123.798 162.104L124.842 159.44C124.95 159.116 125.094 159.008 125.382 159.008H128.406C128.73 159.008 128.91 159.116 128.874 159.512L128.154 166.46C128.118 166.82 128.082 167 127.686 167ZM141.867 163.292L142.731 163.364C143.055 163.4 143.091 163.508 143.091 163.796V166.604C143.091 166.856 142.983 167 142.695 167H133.407C133.155 167 133.011 166.892 133.011 166.64V163.796C133.011 163.544 133.083 163.436 133.335 163.4L134.235 163.292C135.027 163.184 135.171 163.004 135.171 162.428V145.76C135.171 145.184 134.991 145.004 134.235 144.896L133.371 144.788C133.119 144.752 133.011 144.608 133.011 144.356V141.44C133.011 141.296 133.119 141.08 133.407 141.08H144.171C151.227 141.08 154.503 142.952 154.503 148.208V150.512C154.503 155.768 150.975 157.856 144.171 157.856H140.931V162.428C140.931 163.004 141.075 163.22 141.867 163.292ZM143.595 145.04H140.931V153.896H143.595C147.411 153.896 148.599 152.6 148.599 150.008V148.856C148.599 146.264 147.411 145.04 143.595 145.04ZM165.549 141.08H170.085C170.589 141.08 170.661 141.296 170.841 141.8L178.977 161.96C179.409 163.076 179.841 163.22 180.669 163.328L181.209 163.4C181.425 163.436 181.533 163.508 181.533 163.76V166.64C181.533 166.784 181.461 167 181.209 167H171.813C171.489 167 171.417 167 171.417 166.388V163.904C171.417 163.652 171.525 163.508 171.705 163.472L172.785 163.328C173.181 163.292 173.361 163.004 173.109 162.392L172.137 159.908H162.381L161.481 162.356C161.301 162.896 161.409 163.328 161.949 163.4L162.849 163.508C163.029 163.544 163.137 163.688 163.137 163.94V166.568C163.137 166.892 163.065 167 162.741 167H154.569C154.389 167 154.245 166.892 154.245 166.64V163.832C154.245 163.58 154.353 163.436 154.533 163.4L155.505 163.292C156.189 163.22 156.441 163.04 156.837 161.996L164.973 141.62C165.081 141.26 165.189 141.08 165.549 141.08ZM167.133 147.128L163.677 156.38H170.733L167.133 147.128ZM193.571 163.292L194.435 163.364C194.759 163.4 194.795 163.508 194.795 163.796V166.604C194.795 166.856 194.687 167 194.399 167H185.111C184.859 167 184.715 166.892 184.715 166.64V163.796C184.715 163.544 184.787 163.436 185.039 163.4L185.939 163.292C186.731 163.184 186.875 163.004 186.875 162.428V145.652C186.875 145.076 186.731 144.896 185.939 144.788L185.075 144.68C184.823 144.644 184.715 144.5 184.715 144.248V141.44C184.715 141.188 184.787 141.08 185.075 141.08H194.435C194.723 141.08 194.795 141.188 194.795 141.44V144.176C194.795 144.572 194.759 144.644 194.435 144.68L193.571 144.788C192.779 144.896 192.635 145.076 192.635 145.652V162.428C192.635 163.004 192.779 163.22 193.571 163.292ZM221.295 148.028V149.612C221.295 153.572 219.711 155.696 216.903 156.632C217.983 156.884 218.703 157.604 219.459 159.152L220.611 161.492C221.331 163.04 221.511 163.328 222.015 163.328C222.483 163.328 222.951 163.292 223.203 163.292C223.671 163.292 223.707 163.436 223.707 163.796V166.172C223.707 167.108 223.491 167.144 220.287 167.144C217.263 167.144 216.399 166.748 215.175 164.156L212.763 159.08C212.007 157.532 211.179 157.244 210.351 157.208H207.219V162.428C207.219 163.004 207.363 163.22 208.155 163.292L209.019 163.364C209.343 163.4 209.379 163.508 209.379 163.796V166.604C209.379 166.856 209.271 167 208.983 167H199.695C199.443 167 199.299 166.892 199.299 166.64V163.796C199.299 163.544 199.371 163.436 199.623 163.4L200.523 163.292C201.315 163.184 201.459 163.004 201.459 162.428V145.76C201.459 145.184 201.279 145.004 200.523 144.896L199.659 144.788C199.407 144.752 199.299 144.608 199.299 144.356V141.44C199.299 141.296 199.407 141.08 199.695 141.08H211.719C217.695 141.08 221.295 141.728 221.295 148.028ZM215.715 148.028C215.715 145.94 214.671 144.752 211.143 144.752H207.219V153.176H211.143C214.671 153.176 215.715 152.06 215.715 149.612V148.028ZM86.46 186.296L86.496 193.46C86.496 197.204 88.08 198.896 93.3 198.896C95.604 198.896 98.232 198.572 100.104 198.248C100.644 198.14 101.04 198.212 101.04 198.86V201.956C101.04 202.424 100.968 202.604 100.356 202.748C99.132 203.036 95.856 203.36 92.472 203.36C82.248 203.36 80.34 199.652 80.34 193.424V186.368C80.34 179.456 84.444 176.864 91.644 176.864C94.236 176.864 99.096 177.08 100.104 177.404C100.392 177.512 100.464 177.62 100.464 177.908L100.176 184.496C100.176 184.856 99.96 185 99.6 185H96.864C96.54 185 96.396 184.82 96.324 184.496L95.676 181.22C94.92 181.112 93.516 181.004 91.68 181.004C87.576 181.004 86.46 183.704 86.46 186.296ZM115.99 177.08H120.526C121.03 177.08 121.102 177.296 121.282 177.8L129.418 197.96C129.85 199.076 130.282 199.22 131.11 199.328L131.65 199.4C131.866 199.436 131.974 199.508 131.974 199.76V202.64C131.974 202.784 131.902 203 131.65 203H122.254C121.93 203 121.858 203 121.858 202.388V199.904C121.858 199.652 121.966 199.508 122.146 199.472L123.226 199.328C123.622 199.292 123.802 199.004 123.55 198.392L122.578 195.908H112.822L111.922 198.356C111.742 198.896 111.85 199.328 112.39 199.4L113.29 199.508C113.47 199.544 113.578 199.688 113.578 199.94V202.568C113.578 202.892 113.506 203 113.182 203H105.01C104.83 203 104.686 202.892 104.686 202.64V199.832C104.686 199.58 104.794 199.436 104.974 199.4L105.946 199.292C106.63 199.22 106.882 199.04 107.278 197.996L115.414 177.62C115.522 177.26 115.63 177.08 115.99 177.08ZM117.574 183.128L114.118 192.38H121.174L117.574 183.128ZM144.012 199.292L145.452 199.4C145.92 199.436 146.028 199.616 146.028 200.156V202.568C146.028 202.784 145.92 203 145.632 203H135.552C135.264 203 135.156 202.784 135.156 202.64V199.832C135.156 199.58 135.264 199.436 135.516 199.4L136.38 199.292C137.172 199.184 137.316 199.004 137.316 198.428V181.76C137.316 181.184 137.136 181.004 136.38 180.896L135.516 180.788C135.264 180.752 135.156 180.608 135.156 180.356V177.44C135.156 177.296 135.264 177.08 135.552 177.08H154.488C154.956 177.08 155.064 177.368 155.064 177.62L154.776 184.496C154.74 184.856 154.596 185 154.2 185H151.284C150.996 185 150.816 184.856 150.744 184.496L150.168 182.084C150.06 181.616 149.988 181.472 149.376 181.436L143.076 181.22V188.708H149.952C150.42 188.708 150.564 188.852 150.564 189.32V192.308C150.564 192.776 150.42 192.92 149.844 192.92H143.076V198.428C143.076 199.004 143.22 199.22 144.012 199.292ZM178.968 203H159.312C159.024 203 158.916 202.856 158.916 202.64V199.724C158.916 199.472 159.024 199.328 159.276 199.292L160.14 199.184C160.932 199.076 161.076 199.004 161.076 198.32V181.76C161.076 181.148 160.932 181.004 160.14 180.896L159.276 180.788C159.024 180.752 158.916 180.608 158.916 180.356V177.44C158.916 177.224 159.024 177.08 159.312 177.08H178.86C179.256 177.08 179.256 177.368 179.256 177.62L178.968 184.496C178.932 184.928 178.752 185 178.392 185H175.692C175.368 185 175.26 184.892 175.152 184.496L174.576 182.084C174.468 181.616 174.396 181.436 173.784 181.436L166.836 181.256V187.952H174.576C175.044 187.952 175.188 188.096 175.188 188.564V191.516C175.188 191.984 175.044 192.128 174.468 192.128H166.836V198.86L174.36 198.644C174.828 198.644 174.936 198.428 175.08 198.104L176.124 195.44C176.232 195.116 176.376 195.008 176.664 195.008H179.688C180.012 195.008 180.192 195.116 180.156 195.512L179.436 202.46C179.4 202.82 179.364 203 178.968 203Z" fill="black"/>
<path d="M87.32 251L86.3 247.84H81.14L80.12 251H78.42L82.94 237.4H84.58L89.12 251H87.32ZM82.4 243.92L81.64 246.26H85.78L85.02 243.92L83.72 239.72L82.4 243.92ZM95.9848 242.44C95.6115 242.44 95.1715 242.533 94.6648 242.72C94.1715 242.907 93.5715 243.287 92.8648 243.86V251H91.2248V241.1H92.7848V242.48C93.4915 241.88 94.1315 241.467 94.7048 241.24C95.2915 241.013 95.8515 240.9 96.3848 240.9C97.3048 240.9 98.0048 241.193 98.4848 241.78C98.9782 242.353 99.2248 243.173 99.2248 244.24V251H97.5848V244.48C97.5848 243.12 97.0515 242.44 95.9848 242.44ZM105.738 252C105.311 253.2 104.784 254.073 104.158 254.62C103.544 255.18 102.684 255.46 101.578 255.46V253.84C102.031 253.827 102.418 253.767 102.738 253.66C103.071 253.553 103.364 253.333 103.618 253C103.884 252.68 104.138 252.2 104.378 251.56L104.578 251.06L101.018 241.1H102.698L104.358 245.92L105.378 249L106.358 245.92L107.978 241.1H109.598L105.738 252ZM119.436 245.44V246.64C119.436 248.053 119.069 249.167 118.336 249.98C117.616 250.793 116.583 251.2 115.236 251.2C113.903 251.2 112.869 250.793 112.136 249.98C111.403 249.167 111.036 248.053 111.036 246.64V245.44C111.036 244.053 111.396 242.953 112.116 242.14C112.849 241.313 113.889 240.9 115.236 240.9C116.583 240.9 117.616 241.313 118.336 242.14C119.069 242.953 119.436 244.053 119.436 245.44ZM117.736 245.44C117.736 244.493 117.523 243.753 117.096 243.22C116.669 242.673 116.049 242.4 115.236 242.4C114.436 242.4 113.816 242.673 113.376 243.22C112.949 243.753 112.736 244.493 112.736 245.44V246.64C112.736 247.627 112.949 248.387 113.376 248.92C113.816 249.453 114.436 249.72 115.236 249.72C116.049 249.72 116.669 249.453 117.096 248.92C117.523 248.387 117.736 247.627 117.736 246.64V245.44ZM127.176 242.44C126.803 242.44 126.363 242.533 125.856 242.72C125.363 242.907 124.763 243.287 124.056 243.86V251H122.416V241.1H123.976V242.48C124.683 241.88 125.323 241.467 125.896 241.24C126.483 241.013 127.043 240.9 127.576 240.9C128.496 240.9 129.196 241.193 129.676 241.78C130.17 242.353 130.416 243.173 130.416 244.24V251H128.776V244.48C128.776 243.12 128.243 242.44 127.176 242.44ZM141.022 250.42C140.422 250.713 139.822 250.913 139.222 251.02C138.622 251.14 138.069 251.2 137.562 251.2C136.135 251.2 135.069 250.793 134.362 249.98C133.669 249.167 133.322 248.053 133.322 246.64V245.44C133.322 244.067 133.669 242.967 134.362 242.14C135.069 241.313 136.062 240.9 137.342 240.9C138.022 240.9 138.642 241.04 139.202 241.32C139.775 241.587 140.229 242 140.562 242.56C140.909 243.107 141.082 243.813 141.082 244.68C141.082 245.24 141.002 245.88 140.842 246.6H134.942V246.64C134.942 247.653 135.149 248.42 135.562 248.94C135.989 249.46 136.669 249.72 137.602 249.72C138.029 249.72 138.495 249.667 139.002 249.56C139.522 249.453 140.029 249.287 140.522 249.06L141.022 250.42ZM137.342 242.34C136.569 242.34 135.982 242.593 135.582 243.1C135.195 243.593 134.982 244.293 134.942 245.2H139.422C139.462 244.96 139.482 244.733 139.482 244.52C139.482 243.773 139.269 243.227 138.842 242.88C138.429 242.52 137.929 242.34 137.342 242.34ZM150.236 243.16L151.196 248.66L154.336 237.4H155.956L159.096 248.6L160.096 243.16L161.276 237.4H162.996L159.996 251H158.236L155.116 239.88L151.996 251H150.216L147.236 237.4H149.056L150.236 243.16ZM172.467 250.42C171.867 250.713 171.267 250.913 170.667 251.02C170.067 251.14 169.514 251.2 169.007 251.2C167.581 251.2 166.514 250.793 165.807 249.98C165.114 249.167 164.767 248.053 164.767 246.64V245.44C164.767 244.067 165.114 242.967 165.807 242.14C166.514 241.313 167.507 240.9 168.787 240.9C169.467 240.9 170.087 241.04 170.647 241.32C171.221 241.587 171.674 242 172.007 242.56C172.354 243.107 172.527 243.813 172.527 244.68C172.527 245.24 172.447 245.88 172.287 246.6H166.387V246.64C166.387 247.653 166.594 248.42 167.007 248.94C167.434 249.46 168.114 249.72 169.047 249.72C169.474 249.72 169.941 249.667 170.447 249.56C170.967 249.453 171.474 249.287 171.967 249.06L172.467 250.42ZM168.787 242.34C168.014 242.34 167.427 242.593 167.027 243.1C166.641 243.593 166.427 244.293 166.387 245.2H170.867C170.907 244.96 170.927 244.733 170.927 244.52C170.927 243.773 170.714 243.227 170.287 242.88C169.874 242.52 169.374 242.34 168.787 242.34ZM175.345 248.6V236.2H176.985V248.52C176.985 248.88 177.039 249.153 177.145 249.34C177.265 249.513 177.499 249.6 177.845 249.6H178.165V251.1H177.705C176.825 251.1 176.212 250.867 175.865 250.4C175.519 249.933 175.345 249.333 175.345 248.6ZM181.799 245.46V246.64C181.799 247.653 181.986 248.42 182.359 248.94C182.732 249.447 183.326 249.7 184.139 249.7C184.939 249.7 185.799 249.493 186.719 249.08L187.219 250.46C186.126 250.953 185.066 251.2 184.039 251.2C182.759 251.2 181.786 250.793 181.119 249.98C180.452 249.167 180.119 248.053 180.119 246.64V245.46C180.119 244.047 180.452 242.933 181.119 242.12C181.786 241.307 182.759 240.9 184.039 240.9C184.519 240.9 185.012 240.967 185.519 241.1C186.039 241.22 186.559 241.393 187.079 241.62L186.579 243.02C186.139 242.833 185.712 242.687 185.299 242.58C184.899 242.473 184.512 242.42 184.139 242.42C183.326 242.42 182.732 242.68 182.359 243.2C181.986 243.707 181.799 244.46 181.799 245.46ZM197.424 245.44V246.64C197.424 248.053 197.058 249.167 196.324 249.98C195.604 250.793 194.571 251.2 193.224 251.2C191.891 251.2 190.858 250.793 190.124 249.98C189.391 249.167 189.024 248.053 189.024 246.64V245.44C189.024 244.053 189.384 242.953 190.104 242.14C190.838 241.313 191.878 240.9 193.224 240.9C194.571 240.9 195.604 241.313 196.324 242.14C197.058 242.953 197.424 244.053 197.424 245.44ZM195.724 245.44C195.724 244.493 195.511 243.753 195.084 243.22C194.658 242.673 194.038 242.4 193.224 242.4C192.424 242.4 191.804 242.673 191.364 243.22C190.938 243.753 190.724 244.493 190.724 245.44V246.64C190.724 247.627 190.938 248.387 191.364 248.92C191.804 249.453 192.424 249.72 193.224 249.72C194.038 249.72 194.658 249.453 195.084 248.92C195.511 248.387 195.724 247.627 195.724 246.64V245.44ZM205.065 242.44C204.691 242.44 204.271 242.54 203.805 242.74C203.338 242.927 202.751 243.3 202.045 243.86V251H200.405V241.1H201.965V242.48C202.671 241.893 203.298 241.487 203.845 241.26C204.391 241.02 204.931 240.9 205.465 240.9C206.091 240.9 206.611 241.047 207.025 241.34C207.438 241.62 207.745 242.027 207.945 242.56C208.678 241.933 209.331 241.5 209.905 241.26C210.491 241.02 211.065 240.9 211.625 240.9C212.505 240.9 213.178 241.193 213.645 241.78C214.111 242.353 214.345 243.173 214.345 244.24V251H212.705V244.48C212.705 243.12 212.211 242.44 211.225 242.44C210.851 242.44 210.425 242.54 209.945 242.74C209.478 242.927 208.891 243.3 208.185 243.86C208.198 243.913 208.205 243.973 208.205 244.04C208.205 244.107 208.205 244.173 208.205 244.24V251H206.565V244.48C206.565 243.12 206.065 242.44 205.065 242.44ZM224.967 250.42C224.367 250.713 223.767 250.913 223.167 251.02C222.567 251.14 222.014 251.2 221.507 251.2C220.081 251.2 219.014 250.793 218.307 249.98C217.614 249.167 217.267 248.053 217.267 246.64V245.44C217.267 244.067 217.614 242.967 218.307 242.14C219.014 241.313 220.007 240.9 221.287 240.9C221.967 240.9 222.587 241.04 223.147 241.32C223.721 241.587 224.174 242 224.507 242.56C224.854 243.107 225.027 243.813 225.027 244.68C225.027 245.24 224.947 245.88 224.787 246.6H218.887V246.64C218.887 247.653 219.094 248.42 219.507 248.94C219.934 249.46 220.614 249.72 221.547 249.72C221.974 249.72 222.441 249.667 222.947 249.56C223.467 249.453 223.974 249.287 224.467 249.06L224.967 250.42ZM221.287 242.34C220.514 242.34 219.927 242.593 219.527 243.1C219.141 243.593 218.927 244.293 218.887 245.2H223.367C223.407 244.96 223.427 244.733 223.427 244.52C223.427 243.773 223.214 243.227 222.787 242.88C222.374 242.52 221.874 242.34 221.287 242.34ZM81.3 278.7C81.3 279.953 81.5467 280.92 82.04 281.6C82.5467 282.267 83.32 282.6 84.36 282.6C84.8133 282.6 85.26 282.547 85.7 282.44C86.14 282.333 86.6667 282.147 87.28 281.88L87.86 283.36C87.2067 283.653 86.5867 283.867 86 284C85.4133 284.133 84.8467 284.2 84.3 284.2C82.7267 284.2 81.5333 283.707 80.72 282.72C79.9067 281.733 79.5 280.393 79.5 278.7V275.7C79.5 274.007 79.9067 272.667 80.72 271.68C81.5333 270.693 82.7267 270.2 84.3 270.2C84.8467 270.2 85.4133 270.267 86 270.4C86.6 270.533 87.2067 270.747 87.82 271.04L87.26 272.54C86.18 272.06 85.2133 271.82 84.36 271.82C83.32 271.82 82.5467 272.153 82.04 272.82C81.5467 273.487 81.3 274.447 81.3 275.7V278.7ZM97.7172 278.44V279.64C97.7172 281.053 97.3505 282.167 96.6172 282.98C95.8972 283.793 94.8639 284.2 93.5172 284.2C92.1839 284.2 91.1505 283.793 90.4172 282.98C89.6839 282.167 89.3172 281.053 89.3172 279.64V278.44C89.3172 277.053 89.6772 275.953 90.3972 275.14C91.1305 274.313 92.1705 273.9 93.5172 273.9C94.8639 273.9 95.8972 274.313 96.6172 275.14C97.3505 275.953 97.7172 277.053 97.7172 278.44ZM96.0172 278.44C96.0172 277.493 95.8039 276.753 95.3772 276.22C94.9505 275.673 94.3305 275.4 93.5172 275.4C92.7172 275.4 92.0972 275.673 91.6572 276.22C91.2305 276.753 91.0172 277.493 91.0172 278.44V279.64C91.0172 280.627 91.2305 281.387 91.6572 281.92C92.0972 282.453 92.7172 282.72 93.5172 282.72C94.3305 282.72 94.9505 282.453 95.3772 281.92C95.8039 281.387 96.0172 280.627 96.0172 279.64V278.44ZM105.358 275.44C104.984 275.44 104.564 275.54 104.098 275.74C103.631 275.927 103.044 276.3 102.338 276.86V284H100.698V274.1H102.258V275.48C102.964 274.893 103.591 274.487 104.138 274.26C104.684 274.02 105.224 273.9 105.758 273.9C106.384 273.9 106.904 274.047 107.318 274.34C107.731 274.62 108.038 275.027 108.238 275.56C108.971 274.933 109.624 274.5 110.198 274.26C110.784 274.02 111.358 273.9 111.918 273.9C112.798 273.9 113.471 274.193 113.938 274.78C114.404 275.353 114.638 276.173 114.638 277.24V284H112.998V277.48C112.998 276.12 112.504 275.44 111.518 275.44C111.144 275.44 110.718 275.54 110.237 275.74C109.771 275.927 109.184 276.3 108.478 276.86C108.491 276.913 108.498 276.973 108.498 277.04C108.498 277.107 108.498 277.173 108.498 277.24V284H106.858V277.48C106.858 276.12 106.358 275.44 105.358 275.44ZM125.26 283.42C124.66 283.713 124.06 283.913 123.46 284.02C122.86 284.14 122.307 284.2 121.8 284.2C120.374 284.2 119.307 283.793 118.6 282.98C117.907 282.167 117.56 281.053 117.56 279.64V278.44C117.56 277.067 117.907 275.967 118.6 275.14C119.307 274.313 120.3 273.9 121.58 273.9C122.26 273.9 122.88 274.04 123.44 274.32C124.014 274.587 124.467 275 124.8 275.56C125.147 276.107 125.32 276.813 125.32 277.68C125.32 278.24 125.24 278.88 125.08 279.6H119.18V279.64C119.18 280.653 119.387 281.42 119.8 281.94C120.227 282.46 120.907 282.72 121.84 282.72C122.267 282.72 122.734 282.667 123.24 282.56C123.76 282.453 124.267 282.287 124.76 282.06L125.26 283.42ZM121.58 275.34C120.807 275.34 120.22 275.593 119.82 276.1C119.434 276.593 119.22 277.293 119.18 278.2H123.66C123.7 277.96 123.72 277.733 123.72 277.52C123.72 276.773 123.507 276.227 123.08 275.88C122.667 275.52 122.167 275.34 121.58 275.34ZM140.354 278.44V279.64C140.354 281.053 139.987 282.167 139.254 282.98C138.534 283.793 137.501 284.2 136.154 284.2C134.821 284.2 133.787 283.793 133.054 282.98C132.321 282.167 131.954 281.053 131.954 279.64V278.44C131.954 277.053 132.314 275.953 133.034 275.14C133.767 274.313 134.807 273.9 136.154 273.9C137.501 273.9 138.534 274.313 139.254 275.14C139.987 275.953 140.354 277.053 140.354 278.44ZM138.654 278.44C138.654 277.493 138.441 276.753 138.014 276.22C137.587 275.673 136.967 275.4 136.154 275.4C135.354 275.4 134.734 275.673 134.294 276.22C133.867 276.753 133.654 277.493 133.654 278.44V279.64C133.654 280.627 133.867 281.387 134.294 281.92C134.734 282.453 135.354 282.72 136.154 282.72C136.967 282.72 137.587 282.453 138.014 281.92C138.441 281.387 138.654 280.627 138.654 279.64V278.44ZM148.094 275.44C147.721 275.44 147.281 275.533 146.774 275.72C146.281 275.907 145.681 276.287 144.974 276.86V284H143.334V274.1H144.894V275.48C145.601 274.88 146.241 274.467 146.814 274.24C147.401 274.013 147.961 273.9 148.494 273.9C149.414 273.9 150.114 274.193 150.594 274.78C151.088 275.353 151.334 276.173 151.334 277.24V284H149.694V277.48C149.694 276.12 149.161 275.44 148.094 275.44ZM160.855 271.68H159.015V269.84H160.855V271.68ZM160.755 284H159.115V274.1H160.755V284ZM169.051 275.44C168.678 275.44 168.238 275.533 167.731 275.72C167.238 275.907 166.638 276.287 165.931 276.86V284H164.291V274.1H165.851V275.48C166.558 274.88 167.198 274.467 167.771 274.24C168.358 274.013 168.918 273.9 169.451 273.9C170.371 273.9 171.071 274.193 171.551 274.78C172.045 275.353 172.291 276.173 172.291 277.24V284H170.651V277.48C170.651 276.12 170.118 275.44 169.051 275.44ZM177.417 280.36H176.097L175.937 275.4V270.4H177.577V275.4L177.417 280.36ZM177.677 284H175.837V282.18H177.677V284Z" fill="black"/>
<path d="M82.84 330.98C84.3867 330.98 85.16 330.407 85.16 329.26C85.16 328.793 85.04 328.427 84.8 328.16C84.5733 327.893 84.1467 327.66 83.52 327.46L81.88 326.92C79.92 326.28 78.94 324.993 78.94 323.06C78.94 321.94 79.2867 321.02 79.98 320.3C80.6867 319.567 81.7867 319.2 83.28 319.2C83.9067 319.2 84.5267 319.273 85.14 319.42C85.7533 319.553 86.4067 319.773 87.1 320.08L86.36 322.14C85.72 321.887 85.1733 321.707 84.72 321.6C84.28 321.48 83.8267 321.42 83.36 321.42C82.7467 321.42 82.26 321.533 81.9 321.76C81.5533 321.973 81.38 322.367 81.38 322.94C81.38 323.367 81.5 323.72 81.74 324C81.9933 324.267 82.4067 324.493 82.98 324.68L84.62 325.22C85.6067 325.553 86.3467 326.04 86.84 326.68C87.3467 327.307 87.6 328.14 87.6 329.18C87.6 330.38 87.22 331.353 86.46 332.1C85.7 332.833 84.5067 333.2 82.88 333.2C82.24 333.2 81.5733 333.127 80.88 332.98C80.2 332.82 79.4533 332.553 78.64 332.18L79.38 330.12C80.1267 330.44 80.76 330.667 81.28 330.8C81.8133 330.92 82.3333 330.98 82.84 330.98ZM96.0316 332.66C95.6849 332.82 95.2849 332.947 94.8316 333.04C94.3782 333.147 93.9182 333.2 93.4516 333.2C92.6782 333.2 92.0582 333.04 91.5916 332.72C91.1249 332.4 90.7849 331.953 90.5716 331.38C90.3716 330.807 90.2716 330.153 90.2716 329.42V324.86H88.6316V322.86H90.2716V320.22H92.5716V322.86H95.7316V324.86H92.5716V329.42C92.5716 330.033 92.6849 330.46 92.9116 330.7C93.1516 330.927 93.4916 331.04 93.9316 331.04C94.1449 331.04 94.3716 331.02 94.6116 330.98C94.8649 330.927 95.1449 330.84 95.4516 330.72L96.0316 332.66ZM103.921 333V331.66C103.307 332.193 102.734 332.587 102.201 332.84C101.667 333.08 101.127 333.2 100.581 333.2C99.6741 333.2 98.9741 332.893 98.4808 332.28C97.9874 331.653 97.7408 330.78 97.7408 329.66V322.86H100.041V329.38C100.041 330.5 100.454 331.06 101.281 331.06C101.614 331.06 101.974 330.98 102.361 330.82C102.761 330.66 103.241 330.353 103.801 329.9V322.86H106.101V333H103.921ZM115.808 333V324.86H111.968V333H109.668V324.86H108.028V322.86H109.668V321.86C109.668 320.793 109.934 319.92 110.468 319.24C111.014 318.547 111.914 318.2 113.168 318.2C113.541 318.2 113.894 318.233 114.228 318.3C114.561 318.353 114.874 318.427 115.168 318.52L114.568 320.52C114.114 320.413 113.701 320.36 113.328 320.36C112.901 320.36 112.568 320.467 112.328 320.68C112.088 320.893 111.968 321.287 111.968 321.86V322.86H115.808V321.8C115.808 320.693 116.088 319.787 116.648 319.08C117.208 318.36 118.108 318 119.348 318C119.801 318 120.268 318.047 120.748 318.14C121.228 318.233 121.661 318.353 122.048 318.5L121.488 320.48C120.848 320.267 120.274 320.16 119.768 320.16C119.234 320.16 118.821 320.28 118.528 320.52C118.248 320.747 118.108 321.173 118.108 321.8V322.86H121.268V324.86H118.108V333H115.808ZM134.203 327.78H129.643V333H127.243V319.4H134.803V321.7H129.643V325.48H134.203V327.78ZM139.401 320.94H136.981V318.56H139.401V320.94ZM139.341 333H137.041V322.86H139.341V333ZM147.87 333L145.77 329.6L143.71 333H141.31L144.59 327.8L141.53 322.86H144.01L145.89 325.88L147.71 322.86H150.11L147.05 327.7L150.35 333H147.87ZM159.624 332.42C158.93 332.7 158.277 332.9 157.664 333.02C157.05 333.14 156.47 333.2 155.924 333.2C154.417 333.2 153.277 332.773 152.504 331.92C151.73 331.067 151.344 329.933 151.344 328.52V327.32C151.344 326.373 151.517 325.553 151.864 324.86C152.21 324.167 152.704 323.627 153.344 323.24C153.984 322.853 154.737 322.66 155.604 322.66C156.31 322.66 156.97 322.807 157.584 323.1C158.21 323.38 158.717 323.827 159.104 324.44C159.504 325.04 159.704 325.813 159.704 326.76C159.704 327.04 159.684 327.34 159.644 327.66C159.604 327.967 159.537 328.293 159.444 328.64H153.564C153.59 329.467 153.797 330.087 154.184 330.5C154.57 330.913 155.19 331.12 156.044 331.12C156.497 331.12 156.964 331.067 157.444 330.96C157.937 330.853 158.444 330.693 158.964 330.48L159.624 332.42ZM155.604 324.6C154.99 324.6 154.51 324.8 154.164 325.2C153.83 325.587 153.637 326.147 153.584 326.88H157.424C157.437 326.813 157.444 326.753 157.444 326.7C157.444 326.633 157.444 326.573 157.444 326.52C157.444 325.88 157.264 325.4 156.904 325.08C156.544 324.76 156.11 324.6 155.604 324.6ZM168.293 333V331.62C167.68 332.233 167.147 332.653 166.693 332.88C166.253 333.093 165.793 333.2 165.313 333.2C164.22 333.2 163.367 332.787 162.753 331.96C162.153 331.133 161.853 329.973 161.853 328.48V327.4C161.853 325.947 162.22 324.793 162.953 323.94C163.687 323.087 164.747 322.66 166.133 322.66C166.48 322.66 166.82 322.693 167.153 322.76C167.5 322.827 167.84 322.92 168.173 323.04V318.2H170.473V333H168.293ZM164.213 328.48C164.213 329.373 164.36 330.027 164.653 330.44C164.96 330.853 165.387 331.06 165.933 331.06C166.24 331.06 166.567 330.973 166.913 330.8C167.26 330.613 167.68 330.267 168.173 329.76V325.12C167.52 324.853 166.92 324.72 166.373 324.72C165.6 324.72 165.047 324.96 164.713 325.44C164.38 325.92 164.213 326.573 164.213 327.4V328.48ZM184.906 327.78H180.346V333H177.946V319.4H185.506V321.7H180.346V325.48H184.906V327.78ZM190.444 328V333H188.044V319.4H192.584C193.957 319.4 195.011 319.753 195.744 320.46C196.491 321.153 196.864 322.087 196.864 323.26V324.12C196.864 324.893 196.697 325.573 196.364 326.16C196.031 326.747 195.551 327.193 194.924 327.5C196.017 329.367 196.951 331.2 197.724 333H194.984C194.317 331.333 193.524 329.667 192.604 328H190.444ZM192.584 321.6H190.444V325.8H192.584C193.171 325.8 193.617 325.653 193.924 325.36C194.244 325.053 194.404 324.64 194.404 324.12V323.26C194.404 322.753 194.244 322.353 193.924 322.06C193.617 321.753 193.171 321.6 192.584 321.6ZM208.112 330.7V333H200.232V319.4H207.912V321.7H202.632V324.96H207.312V327.26H202.632V330.7H208.112ZM218.834 330.7V333H210.954V319.4H218.634V321.7H213.354V324.96H218.034V327.26H213.354V330.7H218.834ZM78.2 354.34L81.66 352.4H83.66V366H81.3V355.04L79.26 356.16L78.2 354.34ZM85.7391 354.34L89.1991 352.4H91.1991V366H88.8391V355.04L86.7991 356.16L85.7391 354.34ZM98.082 360.7V358.7H104.162V360.7H98.082ZM118.092 362.3C118.092 363.007 117.945 363.66 117.652 364.26C117.359 364.847 116.885 365.32 116.232 365.68C115.592 366.027 114.732 366.2 113.652 366.2C113.039 366.2 112.399 366.127 111.732 365.98C111.079 365.833 110.359 365.587 109.572 365.24L110.312 363.18C111.019 363.433 111.612 363.633 112.092 363.78C112.585 363.913 113.079 363.98 113.572 363.98C114.279 363.98 114.812 363.84 115.172 363.56C115.545 363.267 115.732 362.813 115.732 362.2V361.92C115.732 361.413 115.572 361.007 115.252 360.7C114.945 360.38 114.465 360.22 113.812 360.22H111.692V358.06H113.812C114.439 358.06 114.899 357.913 115.192 357.62C115.485 357.313 115.632 356.92 115.632 356.44V356.16C115.632 355.547 115.459 355.107 115.112 354.84C114.779 354.56 114.285 354.42 113.632 354.42C113.165 354.42 112.692 354.487 112.212 354.62C111.745 354.74 111.179 354.927 110.512 355.18L109.772 353.12C110.519 352.773 111.212 352.533 111.852 352.4C112.492 352.267 113.112 352.2 113.712 352.2C114.739 352.2 115.565 352.373 116.192 352.72C116.819 353.067 117.272 353.533 117.552 354.12C117.845 354.707 117.992 355.353 117.992 356.06V356.34C117.992 356.967 117.832 357.52 117.512 358C117.205 358.467 116.799 358.84 116.292 359.12C116.839 359.413 117.272 359.807 117.592 360.3C117.925 360.78 118.092 361.353 118.092 362.02V362.3Z" fill="black"/>
</svg>
