<svg width="350" height="650" viewBox="0 0 350 650" fill="none" xmlns="http://www.w3.org/2000/svg">
<g clip-path="url(#clip0_60_164)">
<rect width="350" height="650" fill="white"/>
<path fill-rule="evenodd" clip-rule="evenodd" d="M35 82L35 87.8572L35 99.5714L35 111.286L35 123L35 134.714L35 146.429L35 158.143L35 169.857L35 181.571L35 193.286L35 205L35 216.714L35 228.429L35 240.143L35 251.857L35 263.571L35 275.286L35 287L35 298.714L35 310.429L35 322.143L35 333.857L35 345.571L35 357.286L35 369H41L41 357.286L41 345.571L41 333.857L41 322.143L41 310.429L41 298.714L41 287L41 275.286L41 263.571L41 251.857L41 240.143L41 228.429L41 216.714L41 205L41 193.286L41 181.571L41 169.857L41 158.143L41 146.429L41 134.714L41 123L41 111.286L41 99.5714L41 87.8572L41 82V75H35V82ZM35 380.714L35 392.429H41L41 380.714H35ZM35 404.143L35 415.857H41L41 404.143H35ZM35 427.571L35 439.286H41L41 427.571H35ZM35 451L35 462.714H41L41 451H35ZM35 474.429L35 486.143H41L41 474.429H35ZM35 497.857L35 509.572H41L41 497.857H35ZM35 521.286L35 533H41L41 521.286H35ZM35 544.714L35 556.429H41L41 544.714H35ZM35 568.143L35 574H41L41 568.143H35Z" fill="#E2E2E2"/>
<path d="M160 27C162.209 27 164 28.7909 164 31V50C164 52.2091 162.209 54 160 54H78V27H160Z" fill="#E2E2E2"/>
<path d="M106.332 44.39L106.332 46L100.816 46L100.816 36.48L106.192 36.48L106.192 38.09L102.496 38.09L102.496 40.372L105.772 40.372L105.772 41.982L102.496 41.982L102.496 44.39L106.332 44.39ZM115.476 36.48L112.452 46L110.73 46L107.692 36.48L109.54 36.48L110.982 41.268L111.64 43.732L112.34 41.254L113.768 36.48L115.476 36.48ZM122.994 44.39L122.994 46L117.478 46L117.478 36.48L122.854 36.48L122.854 38.09L119.158 38.09L119.158 40.372L122.434 40.372L122.434 41.982L119.158 41.982L119.158 44.39L122.994 44.39ZM125.473 46L125.473 36.48L127.013 36.48C127.751 37.4413 128.451 38.4587 129.113 39.532C129.776 40.596 130.378 41.6927 130.919 42.822L130.794 39.98L130.794 36.48L132.404 36.48L132.404 46L130.864 46C130.266 44.824 129.646 43.6433 129.001 42.458C128.367 41.2633 127.69 40.1387 126.971 39.084L127.083 42.36L127.084 46L125.473 46ZM134.386 38.09L134.386 36.48L141.386 36.48L141.386 38.09L138.726 38.09L138.726 46L137.046 46L137.046 38.09L134.386 38.09Z" fill="black"/>
<path d="M43.9034 39L58.4445 31.7881C58.9127 31.5561 59.1213 31.0043 58.9283 30.5196C58.0935 28.4212 56.9577 26.4754 55.5745 24.7332C55.2484 24.3223 54.6656 24.2209 54.2278 24.5108L40.7017 33.4672L41.7126 17.2997C41.7451 16.7802 41.3721 16.3234 40.8558 16.248C39.76 16.0863 38.6406 16 37.5 16C36.3594 16 35.24 16.0863 34.1442 16.248C33.6279 16.3234 33.2549 16.7802 33.2873 17.2997L34.2982 33.4672L20.7722 24.5108C20.3343 24.2209 19.7516 24.3223 19.4254 24.7332C18.0423 26.4754 16.9065 28.4212 16.0716 30.5196C15.8787 31.0043 16.0872 31.5561 16.5555 31.7882L31.0965 39L16.5555 46.2119C16.0872 46.4439 15.8787 46.9957 16.0716 47.4805C16.9065 49.5788 18.0423 51.5246 19.4254 53.2668C19.7516 53.6777 20.3343 53.7791 20.7722 53.4892L34.2983 44.5328L33.2873 60.7003C33.2549 61.2198 33.6279 61.6766 34.1442 61.752C35.24 61.9138 36.3594 62 37.5 62C38.6406 62 39.76 61.9138 40.8558 61.752C41.3721 61.6766 41.7451 61.2198 41.7127 60.7003L40.7017 44.5328L54.2278 53.4892C54.6657 53.7791 55.2484 53.6777 55.5746 53.2668C56.9577 51.5246 58.0935 49.5788 58.9284 47.4805C59.1213 46.9957 58.9128 46.4439 58.4445 46.2119L43.9034 39Z" fill="#E2E2E2"/>
<path d="M86.46 120.296L86.496 127.46C86.496 131.204 88.08 132.896 93.3 132.896C95.604 132.896 98.232 132.572 100.104 132.248C100.644 132.14 101.04 132.212 101.04 132.86V135.956C101.04 136.424 100.968 136.604 100.356 136.748C99.132 137.036 95.856 137.36 92.472 137.36C82.248 137.36 80.34 133.652 80.34 127.424V120.368C80.34 113.456 84.444 110.864 91.644 110.864C94.236 110.864 99.096 111.08 100.104 111.404C100.392 111.512 100.464 111.62 100.464 111.908L100.176 118.496C100.176 118.856 99.96 119 99.6 119H96.864C96.54 119 96.396 118.82 96.324 118.496L95.676 115.22C94.92 115.112 93.516 115.004 91.68 115.004C87.576 115.004 86.46 117.704 86.46 120.296ZM131.182 133.292L132.046 133.364C132.37 133.4 132.406 133.508 132.406 133.796V136.604C132.406 136.856 132.298 137 132.01 137H122.722C122.47 137 122.326 136.892 122.326 136.64V133.796C122.326 133.544 122.398 133.436 122.65 133.4L123.55 133.292C124.342 133.184 124.486 133.004 124.486 132.428V125.732H113.866V132.428C113.866 133.004 114.01 133.22 114.802 133.292L115.666 133.364C115.99 133.4 116.026 133.508 116.026 133.796V136.604C116.026 136.856 115.918 137 115.63 137H106.342C106.09 137 105.946 136.892 105.946 136.64V133.796C105.946 133.544 106.018 133.436 106.27 133.4L107.17 133.292C107.962 133.184 108.106 133.004 108.106 132.428V115.652C108.106 115.076 107.962 114.896 107.17 114.788L106.306 114.68C106.054 114.644 105.946 114.5 105.946 114.248V111.44C105.946 111.188 106.018 111.08 106.306 111.08H115.666C115.954 111.08 116.026 111.188 116.026 111.44V114.176C116.026 114.572 115.99 114.644 115.666 114.68L114.802 114.788C114.01 114.896 113.866 115.076 113.866 115.652V122.204H124.486V115.652C124.486 115.076 124.342 114.896 123.55 114.788L122.686 114.68C122.434 114.644 122.326 114.5 122.326 114.248V111.44C122.326 111.188 122.398 111.08 122.686 111.08H132.046C132.334 111.08 132.406 111.188 132.406 111.44V114.176C132.406 114.572 132.37 114.644 132.046 114.68L131.182 114.788C130.39 114.896 130.246 115.076 130.246 115.652V132.428C130.246 133.004 130.39 133.22 131.182 133.292ZM146.957 111.08H151.493C151.997 111.08 152.069 111.296 152.249 111.8L160.385 131.96C160.817 133.076 161.249 133.22 162.077 133.328L162.617 133.4C162.833 133.436 162.941 133.508 162.941 133.76V136.64C162.941 136.784 162.869 137 162.617 137H153.221C152.897 137 152.825 137 152.825 136.388V133.904C152.825 133.652 152.933 133.508 153.113 133.472L154.193 133.328C154.589 133.292 154.769 133.004 154.517 132.392L153.545 129.908H143.789L142.889 132.356C142.709 132.896 142.817 133.328 143.357 133.4L144.257 133.508C144.437 133.544 144.545 133.688 144.545 133.94V136.568C144.545 136.892 144.473 137 144.149 137H135.977C135.797 137 135.653 136.892 135.653 136.64V133.832C135.653 133.58 135.761 133.436 135.941 133.4L136.913 133.292C137.597 133.22 137.849 133.04 138.245 131.996L146.381 111.62C146.489 111.26 146.597 111.08 146.957 111.08ZM148.541 117.128L145.085 126.38H152.141L148.541 117.128ZM162.916 111.08H184.984C185.38 111.08 185.38 111.368 185.38 111.62L185.092 118.496C185.056 119 184.804 119 184.516 119H181.852C181.6 119 181.384 118.82 181.312 118.496L180.7 115.364C180.664 115.076 180.484 114.932 180.232 114.932L176.812 114.824V132.32C176.812 132.896 176.956 133.112 177.748 133.184L179.692 133.4C179.908 133.436 180.052 133.58 180.052 133.796V136.64C180.052 136.856 179.944 137 179.656 137H168.208C167.92 137 167.812 136.892 167.812 136.64V133.832C167.812 133.58 167.92 133.436 168.172 133.4L170.116 133.184C170.908 133.112 171.052 132.86 171.052 132.32V114.824L167.632 114.932C167.38 114.932 167.2 115.076 167.164 115.364L166.552 118.496C166.48 118.82 166.264 119 166.012 119H163.384C163.096 119 162.844 119 162.808 118.496L162.52 111.62C162.52 111.368 162.52 111.08 162.916 111.08ZM188.785 111.08H210.853C211.249 111.08 211.249 111.368 211.249 111.62L210.961 118.496C210.925 119 210.673 119 210.385 119H207.721C207.469 119 207.253 118.82 207.181 118.496L206.569 115.364C206.533 115.076 206.353 114.932 206.101 114.932L202.681 114.824V132.32C202.681 132.896 202.825 133.112 203.617 133.184L205.561 133.4C205.777 133.436 205.921 133.58 205.921 133.796V136.64C205.921 136.856 205.813 137 205.525 137H194.077C193.789 137 193.681 136.892 193.681 136.64V133.832C193.681 133.58 193.789 133.436 194.041 133.4L195.985 133.184C196.777 133.112 196.921 132.86 196.921 132.32V114.824L193.501 114.932C193.249 114.932 193.069 115.076 193.033 115.364L192.421 118.496C192.349 118.82 192.133 119 191.881 119H189.253C188.965 119 188.713 119 188.677 118.496L188.389 111.62C188.389 111.368 188.389 111.08 188.785 111.08ZM234.455 137H215.303C215.051 137 214.943 136.784 214.943 136.64V133.724C214.943 133.472 215.051 133.328 215.267 133.292L216.311 133.184C216.995 133.076 217.139 132.896 217.139 132.32V115.652C217.139 115.076 216.995 114.896 216.203 114.788L215.339 114.68C215.087 114.644 214.979 114.5 214.979 114.248V111.44C214.979 111.188 215.051 111.08 215.339 111.08H224.699C224.987 111.08 225.059 111.188 225.059 111.44V114.176C225.059 114.572 225.023 114.644 224.699 114.68L223.835 114.788C223.043 114.896 222.899 115.076 222.899 115.652V132.86L229.559 132.644C229.991 132.644 230.135 132.5 230.279 132.176L231.323 128.936C231.431 128.612 231.647 128.432 231.863 128.432H235.103C235.391 128.432 235.607 128.504 235.571 128.936L234.851 136.46C234.851 136.712 234.851 136.964 234.455 137ZM248.853 111.08H253.389C253.893 111.08 253.965 111.296 254.145 111.8L262.281 131.96C262.713 133.076 263.145 133.22 263.973 133.328L264.513 133.4C264.729 133.436 264.837 133.508 264.837 133.76V136.64C264.837 136.784 264.765 137 264.513 137H255.117C254.793 137 254.721 137 254.721 136.388V133.904C254.721 133.652 254.829 133.508 255.009 133.472L256.089 133.328C256.485 133.292 256.665 133.004 256.413 132.392L255.441 129.908H245.685L244.785 132.356C244.605 132.896 244.713 133.328 245.253 133.4L246.153 133.508C246.333 133.544 246.441 133.688 246.441 133.94V136.568C246.441 136.892 246.369 137 246.045 137H237.873C237.693 137 237.549 136.892 237.549 136.64V133.832C237.549 133.58 237.657 133.436 237.837 133.4L238.809 133.292C239.493 133.22 239.745 133.04 240.141 131.996L248.277 111.62C248.385 111.26 248.493 111.08 248.853 111.08ZM250.437 117.128L246.981 126.38H254.037L250.437 117.128ZM289.402 117.344V118.064C289.402 120.404 288.25 122.348 286.126 123.104C288.682 123.356 290.878 125.048 290.878 128.612V129.476C290.878 135.02 287.818 137 279.286 137H268.414C268.126 137 268.018 136.784 268.018 136.64V133.724C268.018 133.472 268.126 133.328 268.378 133.292L269.242 133.184C270.034 133.076 270.178 132.896 270.178 132.32V115.76C270.178 115.184 269.998 115.004 269.242 114.896L268.378 114.788C268.126 114.752 268.018 114.608 268.018 114.356V111.44C268.018 111.296 268.126 111.08 268.414 111.08H281.806C287.026 111.08 289.402 112.304 289.402 117.344ZM279.862 125.336H275.938V132.86H279.718C283.318 132.86 285.118 132.248 285.118 129.764V128.432C285.118 126.092 283.174 125.336 279.862 125.336ZM280.726 115.112H275.938V121.304H280.654C283.066 121.304 284.146 120.152 284.146 118.352V117.74C284.146 115.94 283.246 115.112 280.726 115.112ZM101.616 154.028V155.612C101.616 159.572 100.032 161.696 97.224 162.632C98.304 162.884 99.024 163.604 99.78 165.152L100.932 167.492C101.652 169.04 101.832 169.328 102.336 169.328C102.804 169.328 103.272 169.292 103.524 169.292C103.992 169.292 104.028 169.436 104.028 169.796V172.172C104.028 173.108 103.812 173.144 100.608 173.144C97.584 173.144 96.72 172.748 95.496 170.156L93.084 165.08C92.328 163.532 91.5 163.244 90.672 163.208H87.54V168.428C87.54 169.004 87.684 169.22 88.476 169.292L89.34 169.364C89.664 169.4 89.7 169.508 89.7 169.796V172.604C89.7 172.856 89.592 173 89.304 173H80.016C79.764 173 79.62 172.892 79.62 172.64V169.796C79.62 169.544 79.692 169.436 79.944 169.4L80.844 169.292C81.636 169.184 81.78 169.004 81.78 168.428V151.76C81.78 151.184 81.6 151.004 80.844 150.896L79.98 150.788C79.728 150.752 79.62 150.608 79.62 150.356V147.44C79.62 147.296 79.728 147.08 80.016 147.08H92.04C98.016 147.08 101.616 147.728 101.616 154.028ZM96.036 154.028C96.036 151.94 94.992 150.752 91.464 150.752H87.54V159.176H91.464C94.992 159.176 96.036 158.06 96.036 155.612V154.028ZM127.686 173H108.03C107.742 173 107.634 172.856 107.634 172.64V169.724C107.634 169.472 107.742 169.328 107.994 169.292L108.858 169.184C109.65 169.076 109.794 169.004 109.794 168.32V151.76C109.794 151.148 109.65 151.004 108.858 150.896L107.994 150.788C107.742 150.752 107.634 150.608 107.634 150.356V147.44C107.634 147.224 107.742 147.08 108.03 147.08H127.578C127.974 147.08 127.974 147.368 127.974 147.62L127.686 154.496C127.65 154.928 127.47 155 127.11 155H124.41C124.086 155 123.978 154.892 123.87 154.496L123.294 152.084C123.186 151.616 123.114 151.436 122.502 151.436L115.554 151.256V157.952H123.294C123.762 157.952 123.906 158.096 123.906 158.564V161.516C123.906 161.984 123.762 162.128 123.186 162.128H115.554V168.86L123.078 168.644C123.546 168.644 123.654 168.428 123.798 168.104L124.842 165.44C124.95 165.116 125.094 165.008 125.382 165.008H128.406C128.73 165.008 128.91 165.116 128.874 165.512L128.154 172.46C128.118 172.82 128.082 173 127.686 173ZM141.867 169.292L142.731 169.364C143.055 169.4 143.091 169.508 143.091 169.796V172.604C143.091 172.856 142.983 173 142.695 173H133.407C133.155 173 133.011 172.892 133.011 172.64V169.796C133.011 169.544 133.083 169.436 133.335 169.4L134.235 169.292C135.027 169.184 135.171 169.004 135.171 168.428V151.76C135.171 151.184 134.991 151.004 134.235 150.896L133.371 150.788C133.119 150.752 133.011 150.608 133.011 150.356V147.44C133.011 147.296 133.119 147.08 133.407 147.08H144.171C151.227 147.08 154.503 148.952 154.503 154.208V156.512C154.503 161.768 150.975 163.856 144.171 163.856H140.931V168.428C140.931 169.004 141.075 169.22 141.867 169.292ZM143.595 151.04H140.931V159.896H143.595C147.411 159.896 148.599 158.6 148.599 156.008V154.856C148.599 152.264 147.411 151.04 143.595 151.04ZM165.549 147.08H170.085C170.589 147.08 170.661 147.296 170.841 147.8L178.977 167.96C179.409 169.076 179.841 169.22 180.669 169.328L181.209 169.4C181.425 169.436 181.533 169.508 181.533 169.76V172.64C181.533 172.784 181.461 173 181.209 173H171.813C171.489 173 171.417 173 171.417 172.388V169.904C171.417 169.652 171.525 169.508 171.705 169.472L172.785 169.328C173.181 169.292 173.361 169.004 173.109 168.392L172.137 165.908H162.381L161.481 168.356C161.301 168.896 161.409 169.328 161.949 169.4L162.849 169.508C163.029 169.544 163.137 169.688 163.137 169.94V172.568C163.137 172.892 163.065 173 162.741 173H154.569C154.389 173 154.245 172.892 154.245 172.64V169.832C154.245 169.58 154.353 169.436 154.533 169.4L155.505 169.292C156.189 169.22 156.441 169.04 156.837 167.996L164.973 147.62C165.081 147.26 165.189 147.08 165.549 147.08ZM167.133 153.128L163.677 162.38H170.733L167.133 153.128ZM193.571 169.292L194.435 169.364C194.759 169.4 194.795 169.508 194.795 169.796V172.604C194.795 172.856 194.687 173 194.399 173H185.111C184.859 173 184.715 172.892 184.715 172.64V169.796C184.715 169.544 184.787 169.436 185.039 169.4L185.939 169.292C186.731 169.184 186.875 169.004 186.875 168.428V151.652C186.875 151.076 186.731 150.896 185.939 150.788L185.075 150.68C184.823 150.644 184.715 150.5 184.715 150.248V147.44C184.715 147.188 184.787 147.08 185.075 147.08H194.435C194.723 147.08 194.795 147.188 194.795 147.44V150.176C194.795 150.572 194.759 150.644 194.435 150.68L193.571 150.788C192.779 150.896 192.635 151.076 192.635 151.652V168.428C192.635 169.004 192.779 169.22 193.571 169.292ZM221.295 154.028V155.612C221.295 159.572 219.711 161.696 216.903 162.632C217.983 162.884 218.703 163.604 219.459 165.152L220.611 167.492C221.331 169.04 221.511 169.328 222.015 169.328C222.483 169.328 222.951 169.292 223.203 169.292C223.671 169.292 223.707 169.436 223.707 169.796V172.172C223.707 173.108 223.491 173.144 220.287 173.144C217.263 173.144 216.399 172.748 215.175 170.156L212.763 165.08C212.007 163.532 211.179 163.244 210.351 163.208H207.219V168.428C207.219 169.004 207.363 169.22 208.155 169.292L209.019 169.364C209.343 169.4 209.379 169.508 209.379 169.796V172.604C209.379 172.856 209.271 173 208.983 173H199.695C199.443 173 199.299 172.892 199.299 172.64V169.796C199.299 169.544 199.371 169.436 199.623 169.4L200.523 169.292C201.315 169.184 201.459 169.004 201.459 168.428V151.76C201.459 151.184 201.279 151.004 200.523 150.896L199.659 150.788C199.407 150.752 199.299 150.608 199.299 150.356V147.44C199.299 147.296 199.407 147.08 199.695 147.08H211.719C217.695 147.08 221.295 147.728 221.295 154.028ZM215.715 154.028C215.715 151.94 214.671 150.752 211.143 150.752H207.219V159.176H211.143C214.671 159.176 215.715 158.06 215.715 155.612V154.028ZM86.46 192.296L86.496 199.46C86.496 203.204 88.08 204.896 93.3 204.896C95.604 204.896 98.232 204.572 100.104 204.248C100.644 204.14 101.04 204.212 101.04 204.86V207.956C101.04 208.424 100.968 208.604 100.356 208.748C99.132 209.036 95.856 209.36 92.472 209.36C82.248 209.36 80.34 205.652 80.34 199.424V192.368C80.34 185.456 84.444 182.864 91.644 182.864C94.236 182.864 99.096 183.08 100.104 183.404C100.392 183.512 100.464 183.62 100.464 183.908L100.176 190.496C100.176 190.856 99.96 191 99.6 191H96.864C96.54 191 96.396 190.82 96.324 190.496L95.676 187.22C94.92 187.112 93.516 187.004 91.68 187.004C87.576 187.004 86.46 189.704 86.46 192.296ZM115.99 183.08H120.526C121.03 183.08 121.102 183.296 121.282 183.8L129.418 203.96C129.85 205.076 130.282 205.22 131.11 205.328L131.65 205.4C131.866 205.436 131.974 205.508 131.974 205.76V208.64C131.974 208.784 131.902 209 131.65 209H122.254C121.93 209 121.858 209 121.858 208.388V205.904C121.858 205.652 121.966 205.508 122.146 205.472L123.226 205.328C123.622 205.292 123.802 205.004 123.55 204.392L122.578 201.908H112.822L111.922 204.356C111.742 204.896 111.85 205.328 112.39 205.4L113.29 205.508C113.47 205.544 113.578 205.688 113.578 205.94V208.568C113.578 208.892 113.506 209 113.182 209H105.01C104.83 209 104.686 208.892 104.686 208.64V205.832C104.686 205.58 104.794 205.436 104.974 205.4L105.946 205.292C106.63 205.22 106.882 205.04 107.278 203.996L115.414 183.62C115.522 183.26 115.63 183.08 115.99 183.08ZM117.574 189.128L114.118 198.38H121.174L117.574 189.128ZM144.012 205.292L145.452 205.4C145.92 205.436 146.028 205.616 146.028 206.156V208.568C146.028 208.784 145.92 209 145.632 209H135.552C135.264 209 135.156 208.784 135.156 208.64V205.832C135.156 205.58 135.264 205.436 135.516 205.4L136.38 205.292C137.172 205.184 137.316 205.004 137.316 204.428V187.76C137.316 187.184 137.136 187.004 136.38 186.896L135.516 186.788C135.264 186.752 135.156 186.608 135.156 186.356V183.44C135.156 183.296 135.264 183.08 135.552 183.08H154.488C154.956 183.08 155.064 183.368 155.064 183.62L154.776 190.496C154.74 190.856 154.596 191 154.2 191H151.284C150.996 191 150.816 190.856 150.744 190.496L150.168 188.084C150.06 187.616 149.988 187.472 149.376 187.436L143.076 187.22V194.708H149.952C150.42 194.708 150.564 194.852 150.564 195.32V198.308C150.564 198.776 150.42 198.92 149.844 198.92H143.076V204.428C143.076 205.004 143.22 205.22 144.012 205.292ZM178.968 209H159.312C159.024 209 158.916 208.856 158.916 208.64V205.724C158.916 205.472 159.024 205.328 159.276 205.292L160.14 205.184C160.932 205.076 161.076 205.004 161.076 204.32V187.76C161.076 187.148 160.932 187.004 160.14 186.896L159.276 186.788C159.024 186.752 158.916 186.608 158.916 186.356V183.44C158.916 183.224 159.024 183.08 159.312 183.08H178.86C179.256 183.08 179.256 183.368 179.256 183.62L178.968 190.496C178.932 190.928 178.752 191 178.392 191H175.692C175.368 191 175.26 190.892 175.152 190.496L174.576 188.084C174.468 187.616 174.396 187.436 173.784 187.436L166.836 187.256V193.952H174.576C175.044 193.952 175.188 194.096 175.188 194.564V197.516C175.188 197.984 175.044 198.128 174.468 198.128H166.836V204.86L174.36 204.644C174.828 204.644 174.936 204.428 175.08 204.104L176.124 201.44C176.232 201.116 176.376 201.008 176.664 201.008H179.688C180.012 201.008 180.192 201.116 180.156 201.512L179.436 208.46C179.4 208.82 179.364 209 178.968 209Z" fill="black"/>
<path d="M87.32 257L86.3 253.84H81.14L80.12 257H78.42L82.94 243.4H84.58L89.12 257H87.32ZM82.4 249.92L81.64 252.26H85.78L85.02 249.92L83.72 245.72L82.4 249.92ZM95.9848 248.44C95.6115 248.44 95.1715 248.533 94.6648 248.72C94.1715 248.907 93.5715 249.287 92.8648 249.86V257H91.2248V247.1H92.7848V248.48C93.4915 247.88 94.1315 247.467 94.7048 247.24C95.2915 247.013 95.8515 246.9 96.3848 246.9C97.3048 246.9 98.0048 247.193 98.4848 247.78C98.9782 248.353 99.2248 249.173 99.2248 250.24V257H97.5848V250.48C97.5848 249.12 97.0515 248.44 95.9848 248.44ZM105.738 258C105.311 259.2 104.784 260.073 104.158 260.62C103.544 261.18 102.684 261.46 101.578 261.46V259.84C102.031 259.827 102.418 259.767 102.738 259.66C103.071 259.553 103.364 259.333 103.618 259C103.884 258.68 104.138 258.2 104.378 257.56L104.578 257.06L101.018 247.1H102.698L104.358 251.92L105.378 255L106.358 251.92L107.978 247.1H109.598L105.738 258ZM119.436 251.44V252.64C119.436 254.053 119.069 255.167 118.336 255.98C117.616 256.793 116.583 257.2 115.236 257.2C113.903 257.2 112.869 256.793 112.136 255.98C111.403 255.167 111.036 254.053 111.036 252.64V251.44C111.036 250.053 111.396 248.953 112.116 248.14C112.849 247.313 113.889 246.9 115.236 246.9C116.583 246.9 117.616 247.313 118.336 248.14C119.069 248.953 119.436 250.053 119.436 251.44ZM117.736 251.44C117.736 250.493 117.523 249.753 117.096 249.22C116.669 248.673 116.049 248.4 115.236 248.4C114.436 248.4 113.816 248.673 113.376 249.22C112.949 249.753 112.736 250.493 112.736 251.44V252.64C112.736 253.627 112.949 254.387 113.376 254.92C113.816 255.453 114.436 255.72 115.236 255.72C116.049 255.72 116.669 255.453 117.096 254.92C117.523 254.387 117.736 253.627 117.736 252.64V251.44ZM127.176 248.44C126.803 248.44 126.363 248.533 125.856 248.72C125.363 248.907 124.763 249.287 124.056 249.86V257H122.416V247.1H123.976V248.48C124.683 247.88 125.323 247.467 125.896 247.24C126.483 247.013 127.043 246.9 127.576 246.9C128.496 246.9 129.196 247.193 129.676 247.78C130.17 248.353 130.416 249.173 130.416 250.24V257H128.776V250.48C128.776 249.12 128.243 248.44 127.176 248.44ZM141.022 256.42C140.422 256.713 139.822 256.913 139.222 257.02C138.622 257.14 138.069 257.2 137.562 257.2C136.135 257.2 135.069 256.793 134.362 255.98C133.669 255.167 133.322 254.053 133.322 252.64V251.44C133.322 250.067 133.669 248.967 134.362 248.14C135.069 247.313 136.062 246.9 137.342 246.9C138.022 246.9 138.642 247.04 139.202 247.32C139.775 247.587 140.229 248 140.562 248.56C140.909 249.107 141.082 249.813 141.082 250.68C141.082 251.24 141.002 251.88 140.842 252.6H134.942V252.64C134.942 253.653 135.149 254.42 135.562 254.94C135.989 255.46 136.669 255.72 137.602 255.72C138.029 255.72 138.495 255.667 139.002 255.56C139.522 255.453 140.029 255.287 140.522 255.06L141.022 256.42ZM137.342 248.34C136.569 248.34 135.982 248.593 135.582 249.1C135.195 249.593 134.982 250.293 134.942 251.2H139.422C139.462 250.96 139.482 250.733 139.482 250.52C139.482 249.773 139.269 249.227 138.842 248.88C138.429 248.52 137.929 248.34 137.342 248.34ZM150.236 249.16L151.196 254.66L154.336 243.4H155.956L159.096 254.6L160.096 249.16L161.276 243.4H162.996L159.996 257H158.236L155.116 245.88L151.996 257H150.216L147.236 243.4H149.056L150.236 249.16ZM172.467 256.42C171.867 256.713 171.267 256.913 170.667 257.02C170.067 257.14 169.514 257.2 169.007 257.2C167.581 257.2 166.514 256.793 165.807 255.98C165.114 255.167 164.767 254.053 164.767 252.64V251.44C164.767 250.067 165.114 248.967 165.807 248.14C166.514 247.313 167.507 246.9 168.787 246.9C169.467 246.9 170.087 247.04 170.647 247.32C171.221 247.587 171.674 248 172.007 248.56C172.354 249.107 172.527 249.813 172.527 250.68C172.527 251.24 172.447 251.88 172.287 252.6H166.387V252.64C166.387 253.653 166.594 254.42 167.007 254.94C167.434 255.46 168.114 255.72 169.047 255.72C169.474 255.72 169.941 255.667 170.447 255.56C170.967 255.453 171.474 255.287 171.967 255.06L172.467 256.42ZM168.787 248.34C168.014 248.34 167.427 248.593 167.027 249.1C166.641 249.593 166.427 250.293 166.387 251.2H170.867C170.907 250.96 170.927 250.733 170.927 250.52C170.927 249.773 170.714 249.227 170.287 248.88C169.874 248.52 169.374 248.34 168.787 248.34ZM175.345 254.6V242.2H176.985V254.52C176.985 254.88 177.039 255.153 177.145 255.34C177.265 255.513 177.499 255.6 177.845 255.6H178.165V257.1H177.705C176.825 257.1 176.212 256.867 175.865 256.4C175.519 255.933 175.345 255.333 175.345 254.6ZM181.799 251.46V252.64C181.799 253.653 181.986 254.42 182.359 254.94C182.732 255.447 183.326 255.7 184.139 255.7C184.939 255.7 185.799 255.493 186.719 255.08L187.219 256.46C186.126 256.953 185.066 257.2 184.039 257.2C182.759 257.2 181.786 256.793 181.119 255.98C180.452 255.167 180.119 254.053 180.119 252.64V251.46C180.119 250.047 180.452 248.933 181.119 248.12C181.786 247.307 182.759 246.9 184.039 246.9C184.519 246.9 185.012 246.967 185.519 247.1C186.039 247.22 186.559 247.393 187.079 247.62L186.579 249.02C186.139 248.833 185.712 248.687 185.299 248.58C184.899 248.473 184.512 248.42 184.139 248.42C183.326 248.42 182.732 248.68 182.359 249.2C181.986 249.707 181.799 250.46 181.799 251.46ZM197.424 251.44V252.64C197.424 254.053 197.058 255.167 196.324 255.98C195.604 256.793 194.571 257.2 193.224 257.2C191.891 257.2 190.858 256.793 190.124 255.98C189.391 255.167 189.024 254.053 189.024 252.64V251.44C189.024 250.053 189.384 248.953 190.104 248.14C190.838 247.313 191.878 246.9 193.224 246.9C194.571 246.9 195.604 247.313 196.324 248.14C197.058 248.953 197.424 250.053 197.424 251.44ZM195.724 251.44C195.724 250.493 195.511 249.753 195.084 249.22C194.658 248.673 194.038 248.4 193.224 248.4C192.424 248.4 191.804 248.673 191.364 249.22C190.938 249.753 190.724 250.493 190.724 251.44V252.64C190.724 253.627 190.938 254.387 191.364 254.92C191.804 255.453 192.424 255.72 193.224 255.72C194.038 255.72 194.658 255.453 195.084 254.92C195.511 254.387 195.724 253.627 195.724 252.64V251.44ZM205.065 248.44C204.691 248.44 204.271 248.54 203.805 248.74C203.338 248.927 202.751 249.3 202.045 249.86V257H200.405V247.1H201.965V248.48C202.671 247.893 203.298 247.487 203.845 247.26C204.391 247.02 204.931 246.9 205.465 246.9C206.091 246.9 206.611 247.047 207.025 247.34C207.438 247.62 207.745 248.027 207.945 248.56C208.678 247.933 209.331 247.5 209.905 247.26C210.491 247.02 211.065 246.9 211.625 246.9C212.505 246.9 213.178 247.193 213.645 247.78C214.111 248.353 214.345 249.173 214.345 250.24V257H212.705V250.48C212.705 249.12 212.211 248.44 211.225 248.44C210.851 248.44 210.425 248.54 209.945 248.74C209.478 248.927 208.891 249.3 208.185 249.86C208.198 249.913 208.205 249.973 208.205 250.04C208.205 250.107 208.205 250.173 208.205 250.24V257H206.565V250.48C206.565 249.12 206.065 248.44 205.065 248.44ZM224.967 256.42C224.367 256.713 223.767 256.913 223.167 257.02C222.567 257.14 222.014 257.2 221.507 257.2C220.081 257.2 219.014 256.793 218.307 255.98C217.614 255.167 217.267 254.053 217.267 252.64V251.44C217.267 250.067 217.614 248.967 218.307 248.14C219.014 247.313 220.007 246.9 221.287 246.9C221.967 246.9 222.587 247.04 223.147 247.32C223.721 247.587 224.174 248 224.507 248.56C224.854 249.107 225.027 249.813 225.027 250.68C225.027 251.24 224.947 251.88 224.787 252.6H218.887V252.64C218.887 253.653 219.094 254.42 219.507 254.94C219.934 255.46 220.614 255.72 221.547 255.72C221.974 255.72 222.441 255.667 222.947 255.56C223.467 255.453 223.974 255.287 224.467 255.06L224.967 256.42ZM221.287 248.34C220.514 248.34 219.927 248.593 219.527 249.1C219.141 249.593 218.927 250.293 218.887 251.2H223.367C223.407 250.96 223.427 250.733 223.427 250.52C223.427 249.773 223.214 249.227 222.787 248.88C222.374 248.52 221.874 248.34 221.287 248.34ZM81.3 284.7C81.3 285.953 81.5467 286.92 82.04 287.6C82.5467 288.267 83.32 288.6 84.36 288.6C84.8133 288.6 85.26 288.547 85.7 288.44C86.14 288.333 86.6667 288.147 87.28 287.88L87.86 289.36C87.2067 289.653 86.5867 289.867 86 290C85.4133 290.133 84.8467 290.2 84.3 290.2C82.7267 290.2 81.5333 289.707 80.72 288.72C79.9067 287.733 79.5 286.393 79.5 284.7V281.7C79.5 280.007 79.9067 278.667 80.72 277.68C81.5333 276.693 82.7267 276.2 84.3 276.2C84.8467 276.2 85.4133 276.267 86 276.4C86.6 276.533 87.2067 276.747 87.82 277.04L87.26 278.54C86.18 278.06 85.2133 277.82 84.36 277.82C83.32 277.82 82.5467 278.153 82.04 278.82C81.5467 279.487 81.3 280.447 81.3 281.7V284.7ZM97.7172 284.44V285.64C97.7172 287.053 97.3505 288.167 96.6172 288.98C95.8972 289.793 94.8639 290.2 93.5172 290.2C92.1839 290.2 91.1505 289.793 90.4172 288.98C89.6839 288.167 89.3172 287.053 89.3172 285.64V284.44C89.3172 283.053 89.6772 281.953 90.3972 281.14C91.1305 280.313 92.1705 279.9 93.5172 279.9C94.8639 279.9 95.8972 280.313 96.6172 281.14C97.3505 281.953 97.7172 283.053 97.7172 284.44ZM96.0172 284.44C96.0172 283.493 95.8039 282.753 95.3772 282.22C94.9505 281.673 94.3305 281.4 93.5172 281.4C92.7172 281.4 92.0972 281.673 91.6572 282.22C91.2305 282.753 91.0172 283.493 91.0172 284.44V285.64C91.0172 286.627 91.2305 287.387 91.6572 287.92C92.0972 288.453 92.7172 288.72 93.5172 288.72C94.3305 288.72 94.9505 288.453 95.3772 287.92C95.8039 287.387 96.0172 286.627 96.0172 285.64V284.44ZM105.358 281.44C104.984 281.44 104.564 281.54 104.098 281.74C103.631 281.927 103.044 282.3 102.338 282.86V290H100.698V280.1H102.258V281.48C102.964 280.893 103.591 280.487 104.138 280.26C104.684 280.02 105.224 279.9 105.758 279.9C106.384 279.9 106.904 280.047 107.318 280.34C107.731 280.62 108.038 281.027 108.238 281.56C108.971 280.933 109.624 280.5 110.198 280.26C110.784 280.02 111.358 279.9 111.918 279.9C112.798 279.9 113.471 280.193 113.938 280.78C114.404 281.353 114.638 282.173 114.638 283.24V290H112.998V283.48C112.998 282.12 112.504 281.44 111.518 281.44C111.144 281.44 110.718 281.54 110.237 281.74C109.771 281.927 109.184 282.3 108.478 282.86C108.491 282.913 108.498 282.973 108.498 283.04C108.498 283.107 108.498 283.173 108.498 283.24V290H106.858V283.48C106.858 282.12 106.358 281.44 105.358 281.44ZM125.26 289.42C124.66 289.713 124.06 289.913 123.46 290.02C122.86 290.14 122.307 290.2 121.8 290.2C120.374 290.2 119.307 289.793 118.6 288.98C117.907 288.167 117.56 287.053 117.56 285.64V284.44C117.56 283.067 117.907 281.967 118.6 281.14C119.307 280.313 120.3 279.9 121.58 279.9C122.26 279.9 122.88 280.04 123.44 280.32C124.014 280.587 124.467 281 124.8 281.56C125.147 282.107 125.32 282.813 125.32 283.68C125.32 284.24 125.24 284.88 125.08 285.6H119.18V285.64C119.18 286.653 119.387 287.42 119.8 287.94C120.227 288.46 120.907 288.72 121.84 288.72C122.267 288.72 122.734 288.667 123.24 288.56C123.76 288.453 124.267 288.287 124.76 288.06L125.26 289.42ZM121.58 281.34C120.807 281.34 120.22 281.593 119.82 282.1C119.434 282.593 119.22 283.293 119.18 284.2H123.66C123.7 283.96 123.72 283.733 123.72 283.52C123.72 282.773 123.507 282.227 123.08 281.88C122.667 281.52 122.167 281.34 121.58 281.34ZM140.354 284.44V285.64C140.354 287.053 139.987 288.167 139.254 288.98C138.534 289.793 137.501 290.2 136.154 290.2C134.821 290.2 133.787 289.793 133.054 288.98C132.321 288.167 131.954 287.053 131.954 285.64V284.44C131.954 283.053 132.314 281.953 133.034 281.14C133.767 280.313 134.807 279.9 136.154 279.9C137.501 279.9 138.534 280.313 139.254 281.14C139.987 281.953 140.354 283.053 140.354 284.44ZM138.654 284.44C138.654 283.493 138.441 282.753 138.014 282.22C137.587 281.673 136.967 281.4 136.154 281.4C135.354 281.4 134.734 281.673 134.294 282.22C133.867 282.753 133.654 283.493 133.654 284.44V285.64C133.654 286.627 133.867 287.387 134.294 287.92C134.734 288.453 135.354 288.72 136.154 288.72C136.967 288.72 137.587 288.453 138.014 287.92C138.441 287.387 138.654 286.627 138.654 285.64V284.44ZM148.094 281.44C147.721 281.44 147.281 281.533 146.774 281.72C146.281 281.907 145.681 282.287 144.974 282.86V290H143.334V280.1H144.894V281.48C145.601 280.88 146.241 280.467 146.814 280.24C147.401 280.013 147.961 279.9 148.494 279.9C149.414 279.9 150.114 280.193 150.594 280.78C151.088 281.353 151.334 282.173 151.334 283.24V290H149.694V283.48C149.694 282.12 149.161 281.44 148.094 281.44ZM160.855 277.68H159.015V275.84H160.855V277.68ZM160.755 290H159.115V280.1H160.755V290ZM169.051 281.44C168.678 281.44 168.238 281.533 167.731 281.72C167.238 281.907 166.638 282.287 165.931 282.86V290H164.291V280.1H165.851V281.48C166.558 280.88 167.198 280.467 167.771 280.24C168.358 280.013 168.918 279.9 169.451 279.9C170.371 279.9 171.071 280.193 171.551 280.78C172.045 281.353 172.291 282.173 172.291 283.24V290H170.651V283.48C170.651 282.12 170.118 281.44 169.051 281.44ZM177.417 286.36H176.097L175.937 281.4V276.4H177.577V281.4L177.417 286.36ZM177.677 290H175.837V288.18H177.677V290Z" fill="black"/>
<path d="M78.26 327.7V325.4H88.26V327.7H84.46V339H82.06V327.7H78.26ZM95.0673 330.8C94.734 330.8 94.354 330.88 93.9273 331.04C93.5007 331.2 92.994 331.513 92.4073 331.98V339H90.1073V324.2H92.4073V330.12C93.0207 329.6 93.594 329.227 94.1273 329C94.6607 328.773 95.2073 328.66 95.7673 328.66C96.7407 328.66 97.4807 328.973 97.9873 329.6C98.494 330.213 98.7473 331.08 98.7473 332.2V339H96.4473V332.48C96.4473 331.36 95.9873 330.8 95.0673 330.8ZM104.147 326.94H101.727V324.56H104.147V326.94ZM104.087 339H101.787V328.86H104.087V339ZM112.976 330.96C112.349 330.96 111.749 331.06 111.176 331.26C110.616 331.447 110.076 331.753 109.556 332.18V339H107.256V328.86H109.436V330.42C110.116 329.78 110.722 329.327 111.256 329.06C111.789 328.793 112.362 328.66 112.976 328.66V330.96ZM120.93 339V337.62C120.317 338.233 119.783 338.653 119.33 338.88C118.89 339.093 118.43 339.2 117.95 339.2C116.857 339.2 116.003 338.787 115.39 337.96C114.79 337.133 114.49 335.973 114.49 334.48V333.4C114.49 331.947 114.857 330.793 115.59 329.94C116.323 329.087 117.383 328.66 118.77 328.66C119.117 328.66 119.457 328.693 119.79 328.76C120.137 328.827 120.477 328.92 120.81 329.04V324.2H123.11V339H120.93ZM116.85 334.48C116.85 335.373 116.997 336.027 117.29 336.44C117.597 336.853 118.023 337.06 118.57 337.06C118.877 337.06 119.203 336.973 119.55 336.8C119.897 336.613 120.317 336.267 120.81 335.76V331.12C120.157 330.853 119.557 330.72 119.01 330.72C118.237 330.72 117.683 330.96 117.35 331.44C117.017 331.92 116.85 332.573 116.85 333.4V334.48ZM133.543 336.98C135.09 336.98 135.863 336.407 135.863 335.26C135.863 334.793 135.743 334.427 135.503 334.16C135.276 333.893 134.85 333.66 134.223 333.46L132.583 332.92C130.623 332.28 129.643 330.993 129.643 329.06C129.643 327.94 129.99 327.02 130.683 326.3C131.39 325.567 132.49 325.2 133.983 325.2C134.61 325.2 135.23 325.273 135.843 325.42C136.456 325.553 137.11 325.773 137.803 326.08L137.063 328.14C136.423 327.887 135.876 327.707 135.423 327.6C134.983 327.48 134.53 327.42 134.063 327.42C133.45 327.42 132.963 327.533 132.603 327.76C132.256 327.973 132.083 328.367 132.083 328.94C132.083 329.367 132.203 329.72 132.443 330C132.696 330.267 133.11 330.493 133.683 330.68L135.323 331.22C136.31 331.553 137.05 332.04 137.543 332.68C138.05 333.307 138.303 334.14 138.303 335.18C138.303 336.38 137.923 337.353 137.163 338.1C136.403 338.833 135.21 339.2 133.583 339.2C132.943 339.2 132.276 339.127 131.583 338.98C130.903 338.82 130.156 338.553 129.343 338.18L130.083 336.12C130.83 336.44 131.463 336.667 131.983 336.8C132.516 336.92 133.036 336.98 133.543 336.98ZM148.315 339.1C147.635 339.1 147.088 338.96 146.675 338.68C146.275 338.4 145.981 338.053 145.795 337.64C145.221 338.173 144.668 338.567 144.135 338.82C143.601 339.073 143.028 339.2 142.415 339.2C141.521 339.2 140.861 338.913 140.435 338.34C140.021 337.767 139.815 337.04 139.815 336.16C139.815 335.573 139.921 335.06 140.135 334.62C140.361 334.167 140.728 333.813 141.235 333.56C141.741 333.307 142.435 333.18 143.315 333.18C143.661 333.18 144.021 333.207 144.395 333.26C144.768 333.3 145.141 333.353 145.515 333.42V332.24C145.515 331.68 145.361 331.3 145.055 331.1C144.748 330.887 144.335 330.78 143.815 330.78C143.415 330.78 142.975 330.833 142.495 330.94C142.028 331.047 141.521 331.213 140.975 331.44L140.315 329.48C141.661 328.933 142.881 328.66 143.975 328.66C144.961 328.66 145.721 328.827 146.255 329.16C146.801 329.493 147.181 329.933 147.395 330.48C147.608 331.027 147.715 331.613 147.715 332.24V336.14C147.715 336.34 147.768 336.533 147.875 336.72C147.995 336.893 148.221 336.98 148.555 336.98H148.775V339.1H148.315ZM142.035 336.12C142.035 336.48 142.115 336.767 142.275 336.98C142.435 337.18 142.668 337.28 142.975 337.28C143.281 337.28 143.628 337.2 144.015 337.04C144.401 336.88 144.901 336.507 145.515 335.92V335.06C144.821 334.94 144.141 334.88 143.475 334.88C142.955 334.88 142.581 334.987 142.355 335.2C142.141 335.413 142.035 335.72 142.035 336.12ZM156.871 338.66C156.525 338.82 156.125 338.947 155.671 339.04C155.218 339.147 154.758 339.2 154.291 339.2C153.518 339.2 152.898 339.04 152.431 338.72C151.965 338.4 151.625 337.953 151.411 337.38C151.211 336.807 151.111 336.153 151.111 335.42V330.86H149.471V328.86H151.111V326.22H153.411V328.86H156.571V330.86H153.411V335.42C153.411 336.033 153.525 336.46 153.751 336.7C153.991 336.927 154.331 337.04 154.771 337.04C154.985 337.04 155.211 337.02 155.451 336.98C155.705 336.927 155.985 336.84 156.291 336.72L156.871 338.66ZM164.761 339V337.66C164.147 338.193 163.574 338.587 163.041 338.84C162.507 339.08 161.967 339.2 161.421 339.2C160.514 339.2 159.814 338.893 159.321 338.28C158.827 337.653 158.581 336.78 158.581 335.66V328.86H160.881V335.38C160.881 336.5 161.294 337.06 162.121 337.06C162.454 337.06 162.814 336.98 163.201 336.82C163.601 336.66 164.081 336.353 164.641 335.9V328.86H166.941V339H164.761ZM175.827 330.96C175.201 330.96 174.601 331.06 174.027 331.26C173.467 331.447 172.927 331.753 172.407 332.18V339H170.107V328.86H172.287V330.42C172.967 329.78 173.574 329.327 174.107 329.06C174.641 328.793 175.214 328.66 175.827 328.66V330.96ZM183.782 339V337.62C183.168 338.233 182.635 338.653 182.182 338.88C181.742 339.093 181.282 339.2 180.802 339.2C179.708 339.2 178.855 338.787 178.242 337.96C177.642 337.133 177.342 335.973 177.342 334.48V333.4C177.342 331.947 177.708 330.793 178.442 329.94C179.175 329.087 180.235 328.66 181.622 328.66C181.968 328.66 182.308 328.693 182.642 328.76C182.988 328.827 183.328 328.92 183.662 329.04V324.2H185.962V339H183.782ZM179.702 334.48C179.702 335.373 179.848 336.027 180.142 336.44C180.448 336.853 180.875 337.06 181.422 337.06C181.728 337.06 182.055 336.973 182.402 336.8C182.748 336.613 183.168 336.267 183.662 335.76V331.12C183.008 330.853 182.408 330.72 181.862 330.72C181.088 330.72 180.535 330.96 180.202 331.44C179.868 331.92 179.702 332.573 179.702 333.4V334.48ZM196.811 339.1C196.131 339.1 195.584 338.96 195.171 338.68C194.771 338.4 194.477 338.053 194.291 337.64C193.717 338.173 193.164 338.567 192.631 338.82C192.097 339.073 191.524 339.2 190.911 339.2C190.017 339.2 189.357 338.913 188.931 338.34C188.517 337.767 188.311 337.04 188.311 336.16C188.311 335.573 188.417 335.06 188.631 334.62C188.857 334.167 189.224 333.813 189.731 333.56C190.237 333.307 190.931 333.18 191.811 333.18C192.157 333.18 192.517 333.207 192.891 333.26C193.264 333.3 193.637 333.353 194.011 333.42V332.24C194.011 331.68 193.857 331.3 193.551 331.1C193.244 330.887 192.831 330.78 192.311 330.78C191.911 330.78 191.471 330.833 190.991 330.94C190.524 331.047 190.017 331.213 189.471 331.44L188.811 329.48C190.157 328.933 191.377 328.66 192.471 328.66C193.457 328.66 194.217 328.827 194.751 329.16C195.297 329.493 195.677 329.933 195.891 330.48C196.104 331.027 196.211 331.613 196.211 332.24V336.14C196.211 336.34 196.264 336.533 196.371 336.72C196.491 336.893 196.717 336.98 197.051 336.98H197.271V339.1H196.811ZM190.531 336.12C190.531 336.48 190.611 336.767 190.771 336.98C190.931 337.18 191.164 337.28 191.471 337.28C191.777 337.28 192.124 337.2 192.511 337.04C192.897 336.88 193.397 336.507 194.011 335.92V335.06C193.317 334.94 192.637 334.88 191.971 334.88C191.451 334.88 191.077 334.987 190.851 335.2C190.637 335.413 190.531 335.72 190.531 336.12ZM203.075 340C202.635 341.227 202.075 342.107 201.395 342.64C200.715 343.187 199.781 343.46 198.595 343.46V341.16C199.301 341.133 199.855 340.973 200.255 340.68C200.668 340.4 200.975 340.007 201.175 339.5L201.355 339.04L197.735 328.86H200.015L201.755 333.92L202.435 336.06L203.095 333.92L204.755 328.86H207.035L203.075 340ZM221.139 336.7V339H213.259V325.4H220.939V327.7H215.659V330.96H220.339V333.26H215.659V336.7H221.139ZM231.362 339.1C230.682 339.1 230.135 338.96 229.722 338.68C229.322 338.4 229.028 338.053 228.842 337.64C228.268 338.173 227.715 338.567 227.182 338.82C226.648 339.073 226.075 339.2 225.462 339.2C224.568 339.2 223.908 338.913 223.482 338.34C223.068 337.767 222.862 337.04 222.862 336.16C222.862 335.573 222.968 335.06 223.182 334.62C223.408 334.167 223.775 333.813 224.282 333.56C224.788 333.307 225.482 333.18 226.362 333.18C226.708 333.18 227.068 333.207 227.442 333.26C227.815 333.3 228.188 333.353 228.562 333.42V332.24C228.562 331.68 228.408 331.3 228.102 331.1C227.795 330.887 227.382 330.78 226.862 330.78C226.462 330.78 226.022 330.833 225.542 330.94C225.075 331.047 224.568 331.213 224.022 331.44L223.362 329.48C224.708 328.933 225.928 328.66 227.022 328.66C228.008 328.66 228.768 328.827 229.302 329.16C229.848 329.493 230.228 329.933 230.442 330.48C230.655 331.027 230.762 331.613 230.762 332.24V336.14C230.762 336.34 230.815 336.533 230.922 336.72C231.042 336.893 231.268 336.98 231.602 336.98H231.822V339.1H231.362ZM225.082 336.12C225.082 336.48 225.162 336.767 225.322 336.98C225.482 337.18 225.715 337.28 226.022 337.28C226.328 337.28 226.675 337.2 227.062 337.04C227.448 336.88 227.948 336.507 228.562 335.92V335.06C227.868 334.94 227.188 334.88 226.522 334.88C226.002 334.88 225.628 334.987 225.402 335.2C225.188 335.413 225.082 335.72 225.082 336.12ZM235.578 333.34V334.52C235.578 335.373 235.732 336.013 236.038 336.44C236.345 336.867 236.838 337.08 237.518 337.08C237.852 337.08 238.225 337.04 238.638 336.96C239.065 336.867 239.525 336.727 240.018 336.54L240.678 338.48C240.078 338.72 239.512 338.9 238.978 339.02C238.445 339.14 237.918 339.2 237.398 339.2C236.065 339.2 235.045 338.773 234.338 337.92C233.632 337.067 233.278 335.933 233.278 334.52V333.34C233.278 331.913 233.632 330.78 234.338 329.94C235.045 329.087 236.065 328.66 237.398 328.66C237.905 328.66 238.418 328.72 238.938 328.84C239.458 328.96 240.005 329.133 240.578 329.36L239.918 331.34C238.958 330.967 238.158 330.78 237.518 330.78C236.838 330.78 236.345 330.993 236.038 331.42C235.732 331.833 235.578 332.473 235.578 333.34ZM247.743 330.8C247.41 330.8 247.03 330.88 246.603 331.04C246.176 331.2 245.67 331.513 245.083 331.98V339H242.783V324.2H245.083V330.12C245.696 329.6 246.27 329.227 246.803 329C247.336 328.773 247.883 328.66 248.443 328.66C249.416 328.66 250.156 328.973 250.663 329.6C251.17 330.213 251.423 331.08 251.423 332.2V339H249.123V332.48C249.123 331.36 248.663 330.8 247.743 330.8ZM261.387 325.4L265.187 334.7L268.967 325.4H271.587V339H269.287V333.8L269.587 329.04L266.207 337.4H264.067L260.767 329.02L261.067 333.8V339H258.767V325.4H261.387ZM283.349 333.32V334.52C283.349 335.933 282.962 337.067 282.189 337.92C281.415 338.773 280.322 339.2 278.909 339.2C277.495 339.2 276.402 338.773 275.629 337.92C274.855 337.067 274.469 335.933 274.469 334.52V333.32C274.469 331.907 274.849 330.78 275.609 329.94C276.382 329.087 277.482 328.66 278.909 328.66C280.335 328.66 281.429 329.087 282.189 329.94C282.962 330.78 283.349 331.907 283.349 333.32ZM280.989 333.32C280.989 332.507 280.809 331.873 280.449 331.42C280.089 330.953 279.575 330.72 278.909 330.72C278.242 330.72 277.729 330.953 277.369 331.42C277.009 331.873 276.829 332.507 276.829 333.32V334.52C276.829 335.333 277.009 335.973 277.369 336.44C277.729 336.907 278.242 337.14 278.909 337.14C279.575 337.14 280.089 336.907 280.449 336.44C280.809 335.973 280.989 335.333 280.989 334.52V333.32ZM290.888 330.8C290.554 330.8 290.174 330.88 289.748 331.04C289.321 331.2 288.814 331.513 288.228 331.98V339H285.928V328.86H288.108V330.22C288.734 329.673 289.328 329.28 289.888 329.04C290.448 328.787 291.014 328.66 291.588 328.66C292.561 328.66 293.301 328.973 293.808 329.6C294.314 330.213 294.568 331.08 294.568 332.2V339H292.268V332.48C292.268 331.36 291.808 330.8 290.888 330.8ZM303.707 338.66C303.361 338.82 302.961 338.947 302.507 339.04C302.054 339.147 301.594 339.2 301.127 339.2C300.354 339.2 299.734 339.04 299.267 338.72C298.801 338.4 298.461 337.953 298.247 337.38C298.047 336.807 297.947 336.153 297.947 335.42V330.86H296.307V328.86H297.947V326.22H300.247V328.86H303.407V330.86H300.247V335.42C300.247 336.033 300.361 336.46 300.587 336.7C300.827 336.927 301.167 337.04 301.607 337.04C301.821 337.04 302.047 337.02 302.287 336.98C302.541 336.927 302.821 336.84 303.127 336.72L303.707 338.66ZM310.517 330.8C310.183 330.8 309.803 330.88 309.377 331.04C308.95 331.2 308.443 331.513 307.857 331.98V339H305.557V324.2H307.857V330.12C308.47 329.6 309.043 329.227 309.577 329C310.11 328.773 310.657 328.66 311.217 328.66C312.19 328.66 312.93 328.973 313.437 329.6C313.943 330.213 314.197 331.08 314.197 332.2V339H311.897V332.48C311.897 331.36 311.437 330.8 310.517 330.8ZM78.2 360.34L81.66 358.4H83.66V372H81.3V361.04L79.26 362.16L78.2 360.34ZM85.7391 360.34L89.1991 358.4H91.1991V372H88.8391V361.04L86.7991 362.16L85.7391 360.34ZM98.082 366.7V364.7H104.162V366.7H98.082ZM118.092 368.3C118.092 369.007 117.945 369.66 117.652 370.26C117.359 370.847 116.885 371.32 116.232 371.68C115.592 372.027 114.732 372.2 113.652 372.2C113.039 372.2 112.399 372.127 111.732 371.98C111.079 371.833 110.359 371.587 109.572 371.24L110.312 369.18C111.019 369.433 111.612 369.633 112.092 369.78C112.585 369.913 113.079 369.98 113.572 369.98C114.279 369.98 114.812 369.84 115.172 369.56C115.545 369.267 115.732 368.813 115.732 368.2V367.92C115.732 367.413 115.572 367.007 115.252 366.7C114.945 366.38 114.465 366.22 113.812 366.22H111.692V364.06H113.812C114.439 364.06 114.899 363.913 115.192 363.62C115.485 363.313 115.632 362.92 115.632 362.44V362.16C115.632 361.547 115.459 361.107 115.112 360.84C114.779 360.56 114.285 360.42 113.632 360.42C113.165 360.42 112.692 360.487 112.212 360.62C111.745 360.74 111.179 360.927 110.512 361.18L109.772 359.12C110.519 358.773 111.212 358.533 111.852 358.4C112.492 358.267 113.112 358.2 113.712 358.2C114.739 358.2 115.565 358.373 116.192 358.72C116.819 359.067 117.272 359.533 117.552 360.12C117.845 360.707 117.992 361.353 117.992 362.06V362.34C117.992 362.967 117.832 363.52 117.512 364C117.205 364.467 116.799 364.84 116.292 365.12C116.839 365.413 117.272 365.807 117.592 366.3C117.925 366.78 118.092 367.353 118.092 368.02V368.3Z" fill="black"/>
<path d="M82.84 418.98C84.3867 418.98 85.16 418.407 85.16 417.26C85.16 416.793 85.04 416.427 84.8 416.16C84.5733 415.893 84.1467 415.66 83.52 415.46L81.88 414.92C79.92 414.28 78.94 412.993 78.94 411.06C78.94 409.94 79.2867 409.02 79.98 408.3C80.6867 407.567 81.7867 407.2 83.28 407.2C83.9067 407.2 84.5267 407.273 85.14 407.42C85.7533 407.553 86.4067 407.773 87.1 408.08L86.36 410.14C85.72 409.887 85.1733 409.707 84.72 409.6C84.28 409.48 83.8267 409.42 83.36 409.42C82.7467 409.42 82.26 409.533 81.9 409.76C81.5533 409.973 81.38 410.367 81.38 410.94C81.38 411.367 81.5 411.72 81.74 412C81.9933 412.267 82.4067 412.493 82.98 412.68L84.62 413.22C85.6067 413.553 86.3467 414.04 86.84 414.68C87.3467 415.307 87.6 416.14 87.6 417.18C87.6 418.38 87.22 419.353 86.46 420.1C85.7 420.833 84.5067 421.2 82.88 421.2C82.24 421.2 81.5733 421.127 80.88 420.98C80.2 420.82 79.4533 420.553 78.64 420.18L79.38 418.12C80.1267 418.44 80.76 418.667 81.28 418.8C81.8133 418.92 82.3333 418.98 82.84 418.98ZM96.0316 420.66C95.6849 420.82 95.2849 420.947 94.8316 421.04C94.3782 421.147 93.9182 421.2 93.4516 421.2C92.6782 421.2 92.0582 421.04 91.5916 420.72C91.1249 420.4 90.7849 419.953 90.5716 419.38C90.3716 418.807 90.2716 418.153 90.2716 417.42V412.86H88.6316V410.86H90.2716V408.22H92.5716V410.86H95.7316V412.86H92.5716V417.42C92.5716 418.033 92.6849 418.46 92.9116 418.7C93.1516 418.927 93.4916 419.04 93.9316 419.04C94.1449 419.04 94.3716 419.02 94.6116 418.98C94.8649 418.927 95.1449 418.84 95.4516 418.72L96.0316 420.66ZM103.921 421V419.66C103.307 420.193 102.734 420.587 102.201 420.84C101.667 421.08 101.127 421.2 100.581 421.2C99.6741 421.2 98.9741 420.893 98.4808 420.28C97.9874 419.653 97.7408 418.78 97.7408 417.66V410.86H100.041V417.38C100.041 418.5 100.454 419.06 101.281 419.06C101.614 419.06 101.974 418.98 102.361 418.82C102.761 418.66 103.241 418.353 103.801 417.9V410.86H106.101V421H103.921ZM115.808 421V412.86H111.968V421H109.668V412.86H108.028V410.86H109.668V409.86C109.668 408.793 109.934 407.92 110.468 407.24C111.014 406.547 111.914 406.2 113.168 406.2C113.541 406.2 113.894 406.233 114.228 406.3C114.561 406.353 114.874 406.427 115.168 406.52L114.568 408.52C114.114 408.413 113.701 408.36 113.328 408.36C112.901 408.36 112.568 408.467 112.328 408.68C112.088 408.893 111.968 409.287 111.968 409.86V410.86H115.808V409.8C115.808 408.693 116.088 407.787 116.648 407.08C117.208 406.36 118.108 406 119.348 406C119.801 406 120.268 406.047 120.748 406.14C121.228 406.233 121.661 406.353 122.048 406.5L121.488 408.48C120.848 408.267 120.274 408.16 119.768 408.16C119.234 408.16 118.821 408.28 118.528 408.52C118.248 408.747 118.108 409.173 118.108 409.8V410.86H121.268V412.86H118.108V421H115.808ZM134.203 415.78H129.643V421H127.243V407.4H134.803V409.7H129.643V413.48H134.203V415.78ZM139.401 408.94H136.981V406.56H139.401V408.94ZM139.341 421H137.041V410.86H139.341V421ZM147.87 421L145.77 417.6L143.71 421H141.31L144.59 415.8L141.53 410.86H144.01L145.89 413.88L147.71 410.86H150.11L147.05 415.7L150.35 421H147.87ZM159.624 420.42C158.93 420.7 158.277 420.9 157.664 421.02C157.05 421.14 156.47 421.2 155.924 421.2C154.417 421.2 153.277 420.773 152.504 419.92C151.73 419.067 151.344 417.933 151.344 416.52V415.32C151.344 414.373 151.517 413.553 151.864 412.86C152.21 412.167 152.704 411.627 153.344 411.24C153.984 410.853 154.737 410.66 155.604 410.66C156.31 410.66 156.97 410.807 157.584 411.1C158.21 411.38 158.717 411.827 159.104 412.44C159.504 413.04 159.704 413.813 159.704 414.76C159.704 415.04 159.684 415.34 159.644 415.66C159.604 415.967 159.537 416.293 159.444 416.64H153.564C153.59 417.467 153.797 418.087 154.184 418.5C154.57 418.913 155.19 419.12 156.044 419.12C156.497 419.12 156.964 419.067 157.444 418.96C157.937 418.853 158.444 418.693 158.964 418.48L159.624 420.42ZM155.604 412.6C154.99 412.6 154.51 412.8 154.164 413.2C153.83 413.587 153.637 414.147 153.584 414.88H157.424C157.437 414.813 157.444 414.753 157.444 414.7C157.444 414.633 157.444 414.573 157.444 414.52C157.444 413.88 157.264 413.4 156.904 413.08C156.544 412.76 156.11 412.6 155.604 412.6ZM168.293 421V419.62C167.68 420.233 167.147 420.653 166.693 420.88C166.253 421.093 165.793 421.2 165.313 421.2C164.22 421.2 163.367 420.787 162.753 419.96C162.153 419.133 161.853 417.973 161.853 416.48V415.4C161.853 413.947 162.22 412.793 162.953 411.94C163.687 411.087 164.747 410.66 166.133 410.66C166.48 410.66 166.82 410.693 167.153 410.76C167.5 410.827 167.84 410.92 168.173 411.04V406.2H170.473V421H168.293ZM164.213 416.48C164.213 417.373 164.36 418.027 164.653 418.44C164.96 418.853 165.387 419.06 165.933 419.06C166.24 419.06 166.567 418.973 166.913 418.8C167.26 418.613 167.68 418.267 168.173 417.76V413.12C167.52 412.853 166.92 412.72 166.373 412.72C165.6 412.72 165.047 412.96 164.713 413.44C164.38 413.92 164.213 414.573 164.213 415.4V416.48ZM184.906 415.78H180.346V421H177.946V407.4H185.506V409.7H180.346V413.48H184.906V415.78ZM190.444 416V421H188.044V407.4H192.584C193.957 407.4 195.011 407.753 195.744 408.46C196.491 409.153 196.864 410.087 196.864 411.26V412.12C196.864 412.893 196.697 413.573 196.364 414.16C196.031 414.747 195.551 415.193 194.924 415.5C196.017 417.367 196.951 419.2 197.724 421H194.984C194.317 419.333 193.524 417.667 192.604 416H190.444ZM192.584 409.6H190.444V413.8H192.584C193.171 413.8 193.617 413.653 193.924 413.36C194.244 413.053 194.404 412.64 194.404 412.12V411.26C194.404 410.753 194.244 410.353 193.924 410.06C193.617 409.753 193.171 409.6 192.584 409.6ZM208.112 418.7V421H200.232V407.4H207.912V409.7H202.632V412.96H207.312V415.26H202.632V418.7H208.112ZM218.834 418.7V421H210.954V407.4H218.634V409.7H213.354V412.96H218.034V415.26H213.354V418.7H218.834Z" fill="black"/>
</g>
<defs>
<clipPath id="clip0_60_164">
<rect width="350" height="650" fill="white"/>
</clipPath>
</defs>
</svg>
